<svg xmlns="http://www.w3.org/2000/svg" xmlns:xlink="http://www.w3.org/1999/xlink" viewBox="0 0 150 200"><defs><style>.a{clip-path:url(#b);}.b{fill:#956c6c;}.c{fill:#360a21;}.d{fill:#1a1515;}.e{fill:#f3e6a7;}.f{fill:#cb8591;}.g{fill:#fff;}.h{fill:#9fa67a;}.i{fill:#4c3f05;}.j{fill:#39310a;}.k{fill:#dcadb6;}.l{fill:#261f20;}.m{fill:#4e3f42;}.n{fill:#dd8038;}.o{fill:#e3c226;}.p{fill:#e49960;}.q{fill:#eab287;}.r{fill:#e8ce51;}.s{fill:#915550;}.t{fill:#eeda7d;}.u{fill:#cccab1;}.v{fill:#aca653;}.w{fill:#dddbb9;}.x{fill:#d7aeab;}.y{fill:#9d3830;}.z{fill:#ebd6d5;}.aa{fill:#772a24;}.ab{fill:#4f1c18;}.ac{fill:#aa911d;}.ad{fill:#817d3e;}.ae{fill:#cdc997;}.af{fill:#d59da7;}.ag{fill:#726213;}.ah{fill:#8d7746;}.ai{fill:#bfbda7;}.aj{fill:#bcb875;}.ak{fill:#733b7c;}.al{fill:#492144;}.am{fill:#d4e7e8;}.an{fill:#5b6a69;}.ao{fill:#103637;}.ap{fill:#185053;}.aq{fill:#301e1f;}.ar{fill:#5779a0;}.as{fill:#206b6e;}.at{fill:#8099b8;}.au{fill:#aabbcf;}.av{fill:#a9d1d3;}.aw{fill:#c47570;}.ax{fill:#badadc;}.ay{fill:#d1e0e1;}.az{fill:#dceced;}.ba{fill:#b9a19f;}.bb{fill:#744440;}.bc{fill:#dbcfce;}.bd{fill:#521511;}.be{fill:#3d100c;}.bf{fill:#2b8d92;}.bg{fill:#80babd;}.bh{fill:#9bc9d5;}.bi{fill:#d2eff0;}.bj{fill:#ced9d9;}.bk{fill:#79a5a7;}.bl{fill:#468d8b;}.bm{fill:#a5c3c4;}.bn{fill:#bf7fbc;}.bo{fill:#692620;}.bp{fill:#eee;}.bq{fill:#aaa;}</style><clipPath id="b"><rect width="150" height="200"/></clipPath></defs><g id="a" class="a"><g transform="translate(-6.783 -3.038)"><g transform="translate(43.756 3.038)"><path class="b" d="M109.43,124.692,106.353,76.43v29.12Z" transform="translate(-106.353 -50.123)"/><path class="c" d="M106.353,40.073l9.671-20.313L109.23,56.246l-2.877,12.947Z" transform="translate(-106.353 -13.766)"/><path class="d" d="M309.592,146.211l9.111-36.238-6.035,17.1Z" transform="translate(-236.741 -71.642)"/><path class="e" d="M153.676,178.073h4.2l-6.993,30.977L137.012,175.4l1.478,1.479,2.079,1.918,4.476.8Z" transform="translate(-126.022 -113.614)"/><path class="f" d="M144.317,53.137,118.5,58.956l-9.271,18.7-2.877,12.947Z" transform="translate(-106.353 -35.179)"/><path class="g" d="M156.32,175.569l-4-3.357-6.477-.719-4.713,2.878,2.079,1.918,4.476.8Z" transform="translate(-128.666 -111.111)"/><path class="h" d="M159.453,171.288a3.027,3.027,0,1,1-3.027-3.027,3.026,3.026,0,0,1,3.027,3.027" transform="translate(-136.535 -109.037)"/><path d="M161.2,173.83a1.139,1.139,0,1,1-1.139-1.139,1.14,1.14,0,0,1,1.139,1.139" transform="translate(-140.076 -111.879)"/><path class="g" d="M162.587,175.195a.33.33,0,1,1-.329-.33.329.329,0,0,1,.329.33" transform="translate(-142.006 -113.274)"/><path class="i" d="M172.67,167.814l3.677,5.395-4-3.356Z" transform="translate(-148.694 -108.75)"/><path class="j" d="M159.19,167.492l-6.476-.719-.877-2.637,7.673,1.318Z" transform="translate(-135.533 -106.39)"/><path class="k" d="M144.317,53.137V93.883l-9.592-3.916L119.38,87.249l-13.027,3.357Z" transform="translate(-106.353 -35.179)"/><path class="l" d="M123.056,145.54l7.04-1.814,15.345,2.718-1.6-3.836-12.788-1.438Z" transform="translate(-117.068 -91.656)"/><path class="m" d="M141.134,179.521l1.774,2.137,4.885.944,8.527-1.883-8.632,1.518-4.475-.8Z" transform="translate(-128.666 -116.261)"/><path d="M141.134,174.371l4.719-2.684,6.466.61,4,3.272-4-3.357-6.477-.72Z" transform="translate(-128.666 -111.111)"/><path class="n" d="M130.433,266.257l8.549,9.83,14.819,9.981-7.142-18.726Z" transform="translate(-121.801 -171.907)"/><path class="o" d="M106.353,157.669l3.077,19.142,7.912-12.788Z" transform="translate(-106.353 -102.242)"/><path class="p" d="M136.716,231.937l-16.225-1.085-5.555-19.781,8.912,15.785Z" transform="translate(-111.859 -136.502)"/><path class="q" d="M182.84,288.01l5.965.537V278.269l-6.234-.48-6.874-8.506Z" transform="translate(-150.84 -173.849)"/><path class="r" d="M122.849,175.4l13.867,33.654-12.868-5.081-8.911-15.785Z" transform="translate(-111.86 -113.614)"/><path class="s" d="M193.376,239.495h-6.634l-3.919-1.778Z" transform="translate(-155.412 -153.597)"/><path class="t" d="M182.171,239.495l3.7,4.5L175.7,249.032l2.554-11.315Z" transform="translate(-150.84 -153.597)"/><path class="u" d="M207.008,242.676v5.545l-2.937-1.049Z" transform="translate(-169.044 -156.778)"/><path class="v" d="M197.454,247.172l-3.7-4.5h6.634Z" transform="translate(-162.427 -156.778)"/><path class="w" d="M204.684,166.811l-4.235,19.341,4.235,2.4Z" transform="translate(-166.72 -108.107)"/><path class="x" d="M175.7,269.284l6.874,8.505,6.234.48v-2.877l-5.964-.08Z" transform="translate(-150.84 -173.849)"/><path class="y" d="M188.805,275.392v-4.316L175.7,269.284Z" transform="translate(-150.841 -173.849)"/><path class="z" d="M188.805,275.392,175.7,269.284l7.142,6.028Z" transform="translate(-150.841 -173.849)"/><path class="z" d="M188.805,256.268l-2.937-1.049-10.17,5.042,8.872-1.624,4.235.508Z" transform="translate(-150.841 -164.825)"/><path class="aa" d="M188.805,266.81l-13.107-.433,8.872-1.624,4.235.508Z" transform="translate(-150.841 -170.941)"/><path class="ab" d="M188.805,269.717l-13.107-.433,13.107,1.792Z" transform="translate(-150.841 -173.849)"/><path class="ac" d="M119.38,148.3l-13.028,3.357,10.99,6.354Z" transform="translate(-106.352 -96.233)"/><path class="o" d="M137.011,158.014l5.314-4.036-3.276-5.675Z" transform="translate(-126.021 -96.233)"/><path class="r" d="M145.973,153.978l7.673,1.319,4.4-4.276L142.7,148.3Z" transform="translate(-129.669 -96.233)"/><path class="ad" d="M187.262,182.865l1.879,13.587-6.318,6.075Z" transform="translate(-155.412 -118.406)"/><path class="ae" d="M195.207,172.566l6.114-5.755-4.236,19.341Z" transform="translate(-163.357 -108.107)"/><path class="af" d="M195.1,159.8l-9.592-3.916,3.477,9.671Z" transform="translate(-157.133 -101.097)"/><path class="t" d="M176.919,165.556h4.2l-3.477-9.671-4.4,4.276Z" transform="translate(-149.265 -101.097)"/><path class="ag" d="M143.2,166.772l-.876-2.637-5.315,4.036,1.478,1.479Z" transform="translate(-126.021 -106.39)"/><path class="ah" d="M200.391,237.777l-3.557-2.737-3.077,1.593Z" transform="translate(-162.427 -151.879)"/><path class="ai" d="M200.449,220.77l.679,5.115,3.556,2.737v-5.454Z" transform="translate(-166.72 -142.725)"/><path class="aj" d="M189.141,220.77l.679,5.115-3.077,1.593-3.92-.634Z" transform="translate(-155.412 -142.725)"/><path class="ak" d="M161.625,21l-25.816,5.819L133.331,9.032l28.294-5.994Z" transform="translate(-123.66 -3.038)"/><path class="al" d="M121.173,19.76,114.38,56.246l9.271-18.7Z" transform="translate(-111.502 -13.766)"/><path class="am" d="M233.517,178.073h-4.2l6.994,30.977L250.181,175.4l-1.478,1.479-2.079,1.918-4.476.8Z" transform="translate(-185.243 -113.614)"/><path class="x" d="M212.265,53.137l25.815,5.819,9.272,18.7,2.876,12.947Z" transform="translate(-174.301 -35.179)"/><path class="g" d="M241.028,175.569l4-3.357,6.477-.719,4.712,2.878-2.079,1.918-4.476.8Z" transform="translate(-192.754 -111.111)"/><path class="an" d="M254.239,171.288a3.027,3.027,0,1,0,3.027-3.027,3.026,3.026,0,0,0-3.027,3.027" transform="translate(-201.229 -109.037)"/><path d="M259.254,173.83a1.139,1.139,0,1,0,1.139-1.139,1.14,1.14,0,0,0-1.139,1.139" transform="translate(-204.447 -111.879)"/><path class="g" d="M260.76,175.195a.33.33,0,1,0,.33-.33.33.33,0,0,0-.33.33" transform="translate(-205.413 -113.274)"/><path class="ao" d="M244.7,167.814l-3.676,5.395,4-3.356Z" transform="translate(-192.754 -108.75)"/><path class="ap" d="M251.6,167.492l6.477-.719.876-2.637-7.673,1.318Z" transform="translate(-199.333 -106.39)"/><path class="z" d="M212.265,53.137V93.883l9.591-3.916L237.2,87.249l13.027,3.357Z" transform="translate(-174.301 -35.179)"/><path class="aq" d="M261.406,145.54l-7.039-1.814-15.345,2.718,1.6-3.836,12.788-1.438Z" transform="translate(-191.467 -91.656)"/><path class="m" d="M256.214,179.521l-1.774,2.137-4.885.944-8.526-1.883,8.631,1.518,4.475-.8Z" transform="translate(-192.754 -116.261)"/><path d="M256.214,174.371l-4.718-2.684-6.466.61-4,3.272,4-3.357,6.477-.72Z" transform="translate(-192.754 -111.111)"/><path class="ar" d="M252.272,266.257l-8.549,9.83L228.9,286.068l7.143-18.726Z" transform="translate(-184.976 -171.907)"/><path class="as" d="M298.506,157.669l-3.076,19.142-7.913-12.788Z" transform="translate(-222.579 -102.242)"/><path class="at" d="M248.831,231.937l16.225-1.085,5.555-19.781L261.7,226.856Z" transform="translate(-197.76 -136.502)"/><path class="au" d="M218.228,288.01l-5.964.537V278.269l6.234-.48,6.873-8.506Z" transform="translate(-174.3 -173.849)"/><path class="av" d="M262.7,175.4l-13.867,33.654,12.868-5.081,8.911-15.785Z" transform="translate(-197.76 -113.614)"/><path class="aw" d="M212.265,239.495H218.9l3.92-1.778Z" transform="translate(-174.301 -153.597)"/><path class="ax" d="M224.154,239.495l-3.7,4.5,10.171,5.042-2.554-11.315Z" transform="translate(-179.557 -153.597)"/><path class="ay" d="M212.265,242.676v5.545l2.937-1.049Z" transform="translate(-174.301 -156.778)"/><path class="az" d="M215.2,247.172l3.7-4.5h-6.633Z" transform="translate(-174.301 -156.778)"/><path class="ay" d="M212.265,166.811l4.235,19.341-4.235,2.4Z" transform="translate(-174.301 -108.107)"/><path class="ba" d="M225.372,269.284l-6.873,8.505-6.234.48v-2.877l5.964-.08Z" transform="translate(-174.301 -173.849)"/><path class="bb" d="M212.265,275.392v-4.316l13.107-1.792Z" transform="translate(-174.301 -173.849)"/><path class="bc" d="M212.265,275.392l13.107-6.108-7.143,6.028Z" transform="translate(-174.301 -173.849)"/><path class="ba" d="M212.265,256.268l2.937-1.049,10.17,5.042-8.872-1.624-4.235.508Z" transform="translate(-174.301 -164.825)"/><path class="bd" d="M212.265,266.81l13.107-.433-8.872-1.624-4.235.508Z" transform="translate(-174.301 -170.941)"/><path class="be" d="M212.265,269.717l13.107-.433-13.107,1.792Z" transform="translate(-174.301 -173.849)"/><path class="bf" d="M281.833,148.3l13.027,3.357-10.989,6.354Z" transform="translate(-218.932 -96.233)"/><path class="bg" d="M278,158.014l-5.314-4.036,3.277-5.675Z" transform="translate(-213.067 -96.233)"/><path class="av" d="M251.09,153.978l-7.673,1.319-4.4-4.276,15.346-2.718Z" transform="translate(-191.466 -96.233)"/><path class="bh" d="M225.96,182.865l-1.878,13.587,6.317,6.075Z" transform="translate(-181.882 -118.406)"/><path class="bi" d="M218.378,172.566l-6.114-5.755,4.236,19.341Z" transform="translate(-174.3 -108.107)"/><path class="bj" d="M212.265,159.8l9.591-3.916-3.477,9.671Z" transform="translate(-174.301 -101.097)"/><path class="am" d="M233.517,165.556h-4.2l3.477-9.671,4.4,4.276Z" transform="translate(-185.243 -101.097)"/><path class="bk" d="M270.247,166.772l.875-2.637,5.315,4.036-1.479,1.479Z" transform="translate(-211.499 -106.39)"/><path class="bl" d="M212.265,237.777l3.557-2.737,3.077,1.593Z" transform="translate(-174.301 -151.879)"/><path class="bm" d="M216.5,220.77l-.679,5.115-3.556,2.737v-5.454Z" transform="translate(-174.301 -142.725)"/><path class="bm" d="M222.865,220.77l-.679,5.115,3.077,1.593,3.92-.634Z" transform="translate(-180.666 -142.725)"/><path class="bn" d="M212.265,21l25.815,5.819,2.478-17.783L212.265,3.038Z" transform="translate(-174.301 -3.038)"/><path class="y" d="M286.762,19.76l6.794,36.486-9.271-18.7Z" transform="translate(-220.505 -13.766)"/><path class="bo" d="M306.9,52.1,291.2,19.76l6.794,36.486,2.876,12.947Z" transform="translate(-224.939 -13.766)"/></g><g transform="translate(48.519 128.095)"><path class="bp" d="M128.019,367.806a1.045,1.045,0,0,1-1.3-.726c-.066-.176-.11-.4-.176-.638-.11-.418-.286-.991-.462-1.673H122.34c-.2.682-.352,1.255-.462,1.673-.066.242-.11.462-.176.638a1.052,1.052,0,0,1-2.025-.573l3.522-12.768a1.051,1.051,0,0,1,2.025,0l3.522,12.768A1.045,1.045,0,0,1,128.019,367.806Zm-3.808-9.8c-.418,1.431-.858,3.126-1.277,4.645h2.554C125.069,361.135,124.629,359.44,124.21,358.009Z" transform="translate(-119.638 -352.593)"/><path class="bp" d="M146.333,357.405a.987.987,0,0,1,.991-.991h.77v-1.3a3.194,3.194,0,0,1,3.192-3.192.991.991,0,0,1,0,1.982,1.194,1.194,0,0,0-1.211,1.211v1.3h1.211a.991.991,0,0,1,0,1.982h-1.211v7.727a.991.991,0,1,1-1.982,0V358.4h-.77A.986.986,0,0,1,146.333,357.405Z" transform="translate(-136.764 -351.924)"/><path class="bp" d="M166.474,371.8v-4.4a3.192,3.192,0,0,1,6.384,0v2.2a.987.987,0,0,1-.991.991h-3.412V371.8a1.2,1.2,0,0,0,.749,1.123,1.222,1.222,0,0,0,1.321-.264.938.938,0,0,1,.682-.308,1,1,0,0,1,.726.308,1.01,1.01,0,0,1,0,1.409,3.19,3.19,0,0,1-3.478.682A3.128,3.128,0,0,1,166.474,371.8Zm1.982-4.4v1.211h2.422V367.4a1.211,1.211,0,1,0-2.422,0Z" transform="translate(-149.686 -359.804)"/><path class="bp" d="M189.073,371.8v-4.4a3.192,3.192,0,0,1,6.384,0v2.2a.987.987,0,0,1-.991.991h-3.412V371.8a1.2,1.2,0,0,0,.749,1.123,1.222,1.222,0,0,0,1.321-.264.938.938,0,0,1,.682-.308,1,1,0,0,1,.726.308,1.01,1.01,0,0,1,0,1.409,3.19,3.19,0,0,1-3.478.682A3.128,3.128,0,0,1,189.073,371.8Zm1.981-4.4v1.211h2.422V367.4a1.211,1.211,0,0,0-2.422,0Z" transform="translate(-164.184 -359.804)"/><path class="bp" d="M209.707,357.405a.987.987,0,0,1,.991-.991h.77v-1.3a3.194,3.194,0,0,1,3.192-3.192.991.991,0,1,1,0,1.982,1.194,1.194,0,0,0-1.211,1.211v1.3h1.211a.991.991,0,0,1,0,1.982h-1.211v7.727a.991.991,0,1,1-1.981,0V358.4h-.77A.986.986,0,0,1,209.707,357.405Z" transform="translate(-177.422 -351.924)"/><path class="bp" d="M232.532,367.343a1.173,1.173,0,0,0-.726-1.079,1.152,1.152,0,0,0-1.277.264.929.929,0,0,1-.7.286.915.915,0,0,1-.682-.286.96.96,0,0,1,0-1.409,3.151,3.151,0,0,1,5.372,2.223V373.9a.987.987,0,0,1-.991.991h-2.2a3.192,3.192,0,1,1,0-6.384h1.21Zm-2.421,4.359a1.194,1.194,0,0,0,1.211,1.211h1.21V370.49h-1.21A1.194,1.194,0,0,0,230.111,371.7Z" transform="translate(-189.241 -359.792)"/><path class="bp" d="M252.433,387.36a1.277,1.277,0,1,1-1.277,1.277A1.278,1.278,0,0,1,252.433,387.36Z" transform="translate(-204.014 -374.658)"/><path class="bp" d="M263.254,363.833v-4.227a3.194,3.194,0,0,1,3.192-3.192h1.211v-3.5a.991.991,0,0,1,1.982,0v13.121a.987.987,0,0,1-.991.991h-2.2A3.194,3.194,0,0,1,263.254,363.833Zm1.981-4.227v4.227a1.194,1.194,0,0,0,1.211,1.211h1.211V358.4h-1.211A1.194,1.194,0,0,0,265.235,359.606Z" transform="translate(-211.775 -351.923)"/><path class="bp" d="M287.08,371.8v-4.4a3.192,3.192,0,0,1,6.384,0v2.2a.987.987,0,0,1-.991.991h-3.412V371.8a1.2,1.2,0,0,0,.749,1.123,1.222,1.222,0,0,0,1.321-.264.938.938,0,0,1,.682-.308,1,1,0,0,1,.726.308,1.01,1.01,0,0,1,0,1.409,3.19,3.19,0,0,1-3.478.682A3.128,3.128,0,0,1,287.08,371.8Zm1.981-4.4v1.211h2.422V367.4a1.211,1.211,0,1,0-2.422,0Z" transform="translate(-227.061 -359.804)"/></g><g transform="translate(9.236 173.242)"><path class="bp" d="M17.708,492.786a.422.422,0,0,1-.533-.311c-.067-.244-.156-.511-.222-.8-.156-.511-.289-1.178-.533-2H11.663c-.245.822-.4,1.489-.556,2-.067.289-.156.556-.222.8a.4.4,0,0,1-.511.311.422.422,0,0,1-.311-.533l3.555-12.889a.427.427,0,0,1,.423-.311.4.4,0,0,1,.4.311L18,492.252A.41.41,0,0,1,17.708,492.786Zm-3.667-11.712c-.356,1.356-1.356,4.956-2.133,7.756h4.267C15.4,486.03,14.4,482.43,14.041,481.074Z" transform="translate(-10.046 -478.63)"/><path class="bp" d="M40.468,499.722a.4.4,0,0,1-.4.4.373.373,0,0,1-.4-.4v-8.8a.373.373,0,0,1,.4-.4h6.667a2.656,2.656,0,0,1,2.622,2.622v6.578a.4.4,0,0,1-.4.4.373.373,0,0,1-.4-.4v-6.578a1.83,1.83,0,0,0-1.822-1.822H44.912v8.4a.4.4,0,0,1-.4.4.373.373,0,0,1-.4-.4v-8.4H40.468Z" transform="translate(-29.05 -485.988)"/><path class="bp" d="M88.634,479.3H91.3a3.082,3.082,0,0,1,3.089,3.089v1.245a3.082,3.082,0,0,1-3.089,3.089H89.056v5.8a.422.422,0,1,1-.845,0v-12.8A.368.368,0,0,1,88.634,479.3Zm2.667.845H89.056v5.733H91.3a2.238,2.238,0,0,0,2.244-2.245v-1.245A2.238,2.238,0,0,0,91.3,480.145Z" transform="translate(-60.193 -478.789)"/><path class="bp" d="M112.578,497.252v-6.578a.4.4,0,1,1,.8,0v6.578a1.831,1.831,0,0,0,1.822,1.822h1.822v-8.4a.4.4,0,1,1,.8,0v8.8a.373.373,0,0,1-.4.4H115.2A2.656,2.656,0,0,1,112.578,497.252Z" transform="translate(-75.826 -485.829)"/><path class="bp" d="M137.192,490.074v-11.8a.4.4,0,0,1,.4-.4.373.373,0,0,1,.4.4v11.8a1.337,1.337,0,0,0,.689,1.178.408.408,0,1,1-.4.711A2.191,2.191,0,0,1,137.192,490.074Z" transform="translate(-91.617 -477.874)"/><path class="bp" d="M152.223,497.349a1.564,1.564,0,0,0-.711-1.266l-2.067-1.467a2.429,2.429,0,0,1-1.022-1.8,2.383,2.383,0,0,1,.777-1.933,2.323,2.323,0,0,1,1.978-.6,2.385,2.385,0,0,1,1.711,1.178.4.4,0,0,1-.133.556.4.4,0,0,1-.556-.156,1.522,1.522,0,0,0-1.133-.778,1.611,1.611,0,0,0-1.333.4,1.595,1.595,0,0,0,.178,2.489l2.067,1.444a2.521,2.521,0,0,1,1.045,1.889,2.413,2.413,0,0,1-.8,2,2.476,2.476,0,0,1-2.067.622,2.541,2.541,0,0,1-1.778-1.222.408.408,0,0,1,.711-.4,1.688,1.688,0,0,0,2.6.4A1.592,1.592,0,0,0,152.223,497.349Z" transform="translate(-98.759 -485.815)"/><path class="bp" d="M181.334,489.3V485.03a2.656,2.656,0,0,1,2.622-2.622h1.822v-4.134a.4.4,0,1,1,.8,0v13.244a.373.373,0,0,1-.4.4h-2.222A2.656,2.656,0,0,1,181.334,489.3Zm.8-4.267V489.3a1.831,1.831,0,0,0,1.822,1.822h1.822v-7.911h-1.822A1.831,1.831,0,0,0,182.134,485.03Z" transform="translate(-119.936 -477.874)"/><path class="bp" d="M205.514,480.976a.636.636,0,0,1,.622-.622.622.622,0,1,1,0,1.245A.636.636,0,0,1,205.514,480.976Zm.622,12.622a.373.373,0,0,1-.4-.4V484.31a.4.4,0,1,1,.8,0V493.2A.373.373,0,0,1,206.136,493.6Z" transform="translate(-135.449 -479.465)"/><path class="bp" d="M217.789,497.34V492.9a2.622,2.622,0,0,1,5.244,0v2.222a.373.373,0,0,1-.4.4h-4.045v1.822a1.836,1.836,0,0,0,1.133,1.689,1.779,1.779,0,0,0,1.978-.4.369.369,0,0,1,.267-.111.382.382,0,0,1,.4.4.366.366,0,0,1-.111.267,2.523,2.523,0,0,1-2.845.578A2.639,2.639,0,0,1,217.789,497.34Zm.8-4.444v1.822h3.645V492.9a1.822,1.822,0,1,0-3.645,0Z" transform="translate(-143.324 -485.829)"/><path class="bp" d="M243.8,497.349a1.564,1.564,0,0,0-.711-1.266l-2.067-1.467a2.429,2.429,0,0,1-1.022-1.8,2.383,2.383,0,0,1,.777-1.933,2.323,2.323,0,0,1,1.978-.6,2.385,2.385,0,0,1,1.711,1.178.4.4,0,0,1-.133.556.4.4,0,0,1-.556-.156,1.522,1.522,0,0,0-1.133-.778,1.611,1.611,0,0,0-1.333.4,1.595,1.595,0,0,0,.178,2.489l2.067,1.444A2.521,2.521,0,0,1,244.6,497.3a2.413,2.413,0,0,1-.8,2,2.476,2.476,0,0,1-2.067.622,2.541,2.541,0,0,1-1.778-1.222.408.408,0,0,1,.711-.4,1.688,1.688,0,0,0,2.6.4A1.592,1.592,0,0,0,243.8,497.349Z" transform="translate(-157.508 -485.815)"/><path class="bp" d="M261,497.34V492.9a2.622,2.622,0,1,1,5.244,0v2.222a.373.373,0,0,1-.4.4H261.8v1.822a1.836,1.836,0,0,0,1.133,1.689,1.779,1.779,0,0,0,1.978-.4.369.369,0,0,1,.267-.111.382.382,0,0,1,.4.4.366.366,0,0,1-.111.267,2.523,2.523,0,0,1-2.845.578A2.639,2.639,0,0,1,261,497.34Zm.8-4.444v1.822h3.645V492.9a1.822,1.822,0,1,0-3.645,0Z" transform="translate(-171.047 -485.829)"/><path class="bp" d="M284.563,499.722v-8.8a.373.373,0,0,1,.4-.4h2.222a2.587,2.587,0,0,1,1.311.356.383.383,0,0,1,.156.533.4.4,0,0,1-.556.156,1.862,1.862,0,0,0-.911-.245h-1.822v8.4a.4.4,0,1,1-.8,0Z" transform="translate(-186.163 -485.988)"/><path class="bp" d="M318.607,489.77a2.338,2.338,0,0,0-.666-1.822l-3.533-3.644a3.106,3.106,0,0,1-.867-2.4,3.057,3.057,0,0,1,3.689-2.778,3.056,3.056,0,0,1,2.067,1.467.435.435,0,0,1-.156.6.429.429,0,0,1-.578-.156,2.376,2.376,0,0,0-1.511-1.089,2.145,2.145,0,0,0-1.778.422,2.3,2.3,0,0,0-.889,1.6,2.164,2.164,0,0,0,.622,1.733l3.555,3.667a3.159,3.159,0,0,1,.889,2.467,3.208,3.208,0,0,1-1.267,2.311,3.109,3.109,0,0,1-2.555.577,3.2,3.2,0,0,1-2.156-1.533.4.4,0,0,1,.177-.578.44.44,0,0,1,.578.156,2.325,2.325,0,0,0,1.556,1.133,2.211,2.211,0,0,0,1.889-.444A2.414,2.414,0,0,0,318.607,489.77Z" transform="translate(-204.674 -478.636)"/><path class="bp" d="M335.958,482.808a.373.373,0,0,1,.4-.4h1.378v-4.134a.4.4,0,0,1,.8,0v4.133h1.822a.4.4,0,1,1,0,.8h-1.822v6.178a1.831,1.831,0,0,0,1.822,1.822.4.4,0,1,1,0,.8,2.656,2.656,0,0,1-2.622-2.622v-6.178h-1.378A.373.373,0,0,1,335.958,482.808Z" transform="translate(-219.136 -477.874)"/><path class="bp" d="M359,492.839a1.791,1.791,0,0,0-3.045-1.266.36.36,0,0,1-.289.133.316.316,0,0,1-.267-.133.368.368,0,0,1-.111-.267.422.422,0,0,1,.111-.289,2.529,2.529,0,0,1,2.8-.556,2.581,2.581,0,0,1,1.6,2.378v6.622a.373.373,0,0,1-.4.4H357.18a2.622,2.622,0,0,1,0-5.244H359Zm-1.822,6.222H359v-3.645H357.18a1.822,1.822,0,0,0,0,3.645Z" transform="translate(-231.068 -485.817)"/><path class="bp" d="M378.117,489.3V485.03a2.656,2.656,0,0,1,2.622-2.622h1.822v-4.134a.4.4,0,1,1,.8,0v13.244a.373.373,0,0,1-.4.4h-2.222A2.656,2.656,0,0,1,378.117,489.3Zm.8-4.267V489.3a1.831,1.831,0,0,0,1.822,1.822h1.822v-7.911h-1.822A1.831,1.831,0,0,0,378.917,485.03Z" transform="translate(-246.183 -477.874)"/><path class="bp" d="M400.188,482.808a.373.373,0,0,1,.4-.4h1.378v-4.134a.4.4,0,1,1,.8,0v4.133h1.822a.4.4,0,1,1,0,.8h-1.822v6.178a1.83,1.83,0,0,0,1.822,1.822.4.4,0,1,1,0,.8,2.656,2.656,0,0,1-2.622-2.622v-6.178h-1.378A.373.373,0,0,1,400.188,482.808Z" transform="translate(-260.342 -477.874)"/></g><g transform="translate(8.783 193.142)"><path class="bq" d="M11.622,534.245a.218.218,0,0,1,.225-.225.228.228,0,0,1,.237.225v6.862a.228.228,0,0,1-.237.225.218.218,0,0,1-.225-.225v-3.324H9.244v3.324a.228.228,0,0,1-.237.225.218.218,0,0,1-.225-.225v-6.862a.218.218,0,0,1,.225-.225.228.228,0,0,1,.237.225v3.087h2.378Z" transform="translate(-8.783 -533.795)"/><path class="bq" d="M23,535.044a.339.339,0,0,1,.332-.331.331.331,0,0,1,0,.663A.339.339,0,0,1,23,535.044Zm.332,6.72a.2.2,0,0,1-.213-.213v-4.732a.213.213,0,0,1,.426,0v4.732A.2.2,0,0,1,23.337,541.764Z" transform="translate(-17.907 -534.239)"/><path class="bq" d="M29.539,543.755v-2.366a1.4,1.4,0,1,1,2.792,0v1.183a.2.2,0,0,1-.213.213H29.965v.97a.978.978,0,0,0,.6.9.948.948,0,0,0,1.053-.213.2.2,0,0,1,.142-.059.2.2,0,0,1,.213.213.2.2,0,0,1-.059.142,1.343,1.343,0,0,1-1.514.308A1.4,1.4,0,0,1,29.539,543.755Zm.426-2.366v.97h1.94v-.97a.97.97,0,1,0-1.94,0Z" transform="translate(-22.099 -537.627)"/><path class="bq" d="M42.079,545.024v-4.685a.2.2,0,0,1,.213-.213h1.183a1.378,1.378,0,0,1,.7.189.2.2,0,0,1,.083.284.214.214,0,0,1-.3.082,1,1,0,0,0-.485-.13H42.5v4.472a.213.213,0,1,1-.426,0Z" transform="translate(-30.144 -537.712)"/><path class="bq" d="M57.394,540.005a.2.2,0,0,1,.261.154c.13.532.248,1.041.379,1.526.189.852.438,1.822.591,2.378.13-.568.367-1.526.591-2.378q.195-.728.39-1.526a.193.193,0,0,1,.2-.166.214.214,0,0,1,.213.166c.13.532.248,1.041.379,1.526.189.852.438,1.822.591,2.378.13-.568.367-1.526.591-2.378q.2-.728.39-1.526a.2.2,0,0,1,.261-.154.21.21,0,0,1,.154.248L61.2,544.986a.215.215,0,0,1-.213.166.193.193,0,0,1-.2-.166q-.2-.8-.391-1.526c-.225-.852-.461-1.81-.591-2.378-.154.556-.4,1.526-.591,2.378-.13.485-.248.994-.379,1.526a.214.214,0,0,1-.213.166.194.194,0,0,1-.2-.166l-1.183-4.732A.192.192,0,0,1,57.394,540.005Z" transform="translate(-39.864 -537.627)"/><path class="bq" d="M75.705,535.044a.339.339,0,0,1,.332-.331.331.331,0,0,1,0,.663A.339.339,0,0,1,75.705,535.044Zm.332,6.72a.2.2,0,0,1-.213-.213v-4.732a.213.213,0,0,1,.426,0v4.732A.2.2,0,0,1,76.037,541.764Z" transform="translate(-51.717 -534.239)"/><path class="bq" d="M82.635,545.024v-4.685a.2.2,0,0,1,.213-.213h1.183a1.378,1.378,0,0,1,.7.189.2.2,0,0,1,.083.284.214.214,0,0,1-.3.082,1,1,0,0,0-.485-.13h-.97v4.472a.213.213,0,1,1-.426,0Z" transform="translate(-56.163 -537.712)"/><path class="bq" d="M92.107,539.472V537.2a1.414,1.414,0,0,1,1.4-1.4h.97v-2.2a.213.213,0,1,1,.426,0v7.051a.2.2,0,0,1-.213.213H93.5A1.414,1.414,0,0,1,92.107,539.472Zm.425-2.271v2.271a.975.975,0,0,0,.97.97h.97v-4.212H93.5A.975.975,0,0,0,92.532,537.2Z" transform="translate(-62.24 -533.391)"/><path class="bq" d="M112.943,543.76a.833.833,0,0,0-.379-.675l-1.1-.781a1.293,1.293,0,0,1-.544-.958,1.27,1.27,0,0,1,.414-1.029,1.237,1.237,0,0,1,1.053-.32,1.268,1.268,0,0,1,.911.627.211.211,0,0,1-.071.3.215.215,0,0,1-.3-.083.809.809,0,0,0-.6-.414.858.858,0,0,0-.71.213.849.849,0,0,0,.095,1.325l1.1.769a1.341,1.341,0,0,1,.556,1.006,1.284,1.284,0,0,1-.426,1.065,1.318,1.318,0,0,1-1.1.331,1.351,1.351,0,0,1-.946-.651.217.217,0,1,1,.378-.213.9.9,0,0,0,1.384.213A.845.845,0,0,0,112.943,543.76Z" transform="translate(-74.276 -537.619)"/><path class="bq" d="M122.1,543.755v-2.366a1.4,1.4,0,1,1,2.792,0v2.366a1.4,1.4,0,0,1-2.792,0Zm.425-2.366v2.366a.97.97,0,0,0,1.94,0V541.39a.97.97,0,1,0-1.94,0Z" transform="translate(-81.484 -537.627)"/><path class="bq" d="M133.994,544.881c.367-.71.7-1.361,1.006-1.964.509-1.018,1.053-2.094,1.207-2.366h-2.011a.213.213,0,0,1,0-.426h2.366a.184.184,0,0,1,.177.107.193.193,0,0,1,.035.107.283.283,0,0,1-.023.095c-.367.71-.7,1.361-1.006,1.964-.532,1.006-1.089,2.094-1.207,2.366h2.023a.213.213,0,0,1,0,.426H134.2a.189.189,0,0,1-.189-.107.171.171,0,0,1-.024-.107C133.982,544.928,133.982,544.893,133.994,544.881Z" transform="translate(-89.105 -537.711)"/><path class="bq" d="M145.927,535.044a.339.339,0,0,1,.332-.331.331.331,0,0,1,0,.663A.339.339,0,0,1,145.927,535.044Zm.332,6.72a.2.2,0,0,1-.213-.213v-4.732a.213.213,0,0,1,.426,0v4.732A.2.2,0,0,1,146.259,541.764Z" transform="translate(-96.768 -534.239)"/><path class="bq" d="M153.9,541.36a.953.953,0,0,0-1.621-.674.192.192,0,0,1-.154.071.168.168,0,0,1-.142-.071.2.2,0,0,1-.059-.142.223.223,0,0,1,.059-.154,1.345,1.345,0,0,1,1.49-.3,1.374,1.374,0,0,1,.852,1.266v3.525a.2.2,0,0,1-.213.213h-1.183a1.4,1.4,0,1,1,0-2.792h.97v-.947Zm-.97,3.313h.97v-1.94h-.97a.97.97,0,0,0,0,1.94Z" transform="translate(-100.367 -537.621)"/><path class="bq" d="M164.374,539.888v-6.282a.212.212,0,0,1,.213-.213.2.2,0,0,1,.213.213v6.282a.712.712,0,0,0,.366.627.217.217,0,1,1-.213.378A1.166,1.166,0,0,1,164.374,539.888Z" transform="translate(-108.603 -533.392)"/><path class="bq" d="M170.677,543.755v-2.366a1.4,1.4,0,1,1,2.792,0v1.183a.2.2,0,0,1-.213.213H171.1v.97a.978.978,0,0,0,.6.9.948.948,0,0,0,1.053-.213.2.2,0,0,1,.142-.059.2.2,0,0,1,.213.213.2.2,0,0,1-.059.142,1.343,1.343,0,0,1-1.514.308A1.4,1.4,0,0,1,170.677,543.755Zm.426-2.366v.97h1.94v-.97a.97.97,0,1,0-1.94,0Z" transform="translate(-112.646 -537.627)"/><path class="bq" d="M184.52,543.76a.833.833,0,0,0-.379-.675l-1.1-.781a1.293,1.293,0,0,1-.544-.958,1.27,1.27,0,0,1,.414-1.029,1.237,1.237,0,0,1,1.053-.32,1.268,1.268,0,0,1,.911.627.211.211,0,0,1-.071.3.215.215,0,0,1-.3-.083.809.809,0,0,0-.6-.414.858.858,0,0,0-.71.213.849.849,0,0,0,.095,1.325l1.1.769a1.341,1.341,0,0,1,.556,1.006,1.284,1.284,0,0,1-.426,1.065,1.318,1.318,0,0,1-1.1.331,1.351,1.351,0,0,1-.946-.651.217.217,0,1,1,.378-.213.9.9,0,0,0,1.384.213A.847.847,0,0,0,184.52,543.76Z" transform="translate(-120.197 -537.619)"/><path class="bq" d="M200.377,541.144v-6.767a.2.2,0,0,1,.225-.225h2.366a.225.225,0,1,1,0,.449h-2.141v2.815h1.9a.225.225,0,0,1,0,.45h-1.9v3.052h2.141a.225.225,0,0,1,0,.45H200.6A.2.2,0,0,1,200.377,541.144Z" transform="translate(-131.701 -533.879)"/><path class="bq" d="M212.553,545.024v-4.685a.2.2,0,0,1,.213-.213h1.183a1.414,1.414,0,0,1,1.4,1.4v3.5a.213.213,0,0,1-.426,0v-3.5a.975.975,0,0,0-.97-.97h-.97v4.472a.213.213,0,0,1-.426,0Z" transform="translate(-139.512 -537.712)"/><path class="bq" d="M225.093,543.793v-2.271a1.414,1.414,0,0,1,1.4-1.4h1.183a.2.2,0,0,1,.213.213v5.868a1.387,1.387,0,0,1-.863,1.29,1.352,1.352,0,0,1-1.514-.307.225.225,0,0,1-.059-.154.2.2,0,0,1,.2-.2.224.224,0,0,1,.154.059.967.967,0,0,0,1.656-.686v-1.017h-.97A1.414,1.414,0,0,1,225.093,543.793Zm.426-2.271v2.271a.975.975,0,0,0,.97.97h.97v-4.212h-.97A.975.975,0,0,0,225.519,541.522Z" transform="translate(-147.557 -537.711)"/><path class="bq" d="M239.206,541.36a.953.953,0,0,0-1.621-.674.192.192,0,0,1-.154.071.168.168,0,0,1-.142-.071.2.2,0,0,1-.059-.142.223.223,0,0,1,.059-.154,1.345,1.345,0,0,1,1.49-.3,1.374,1.374,0,0,1,.852,1.266v3.525a.2.2,0,0,1-.213.213h-1.183a1.4,1.4,0,1,1,0-2.792h.97v-.947Zm-.97,3.313h.97v-1.94h-.97a.97.97,0,0,0,0,1.94Z" transform="translate(-155.093 -537.621)"/><path class="bq" d="M249.381,543.793v-2.271a1.414,1.414,0,0,1,1.4-1.4h1.183a.2.2,0,0,1,.213.213v5.868a1.387,1.387,0,0,1-.864,1.29,1.352,1.352,0,0,1-1.514-.307.225.225,0,0,1-.059-.154.2.2,0,0,1,.2-.2.224.224,0,0,1,.154.059.967.967,0,0,0,1.656-.686v-1.017h-.97A1.414,1.414,0,0,1,249.381,543.793Zm.426-2.271v2.271a.975.975,0,0,0,.97.97h.97v-4.212h-.97A.975.975,0,0,0,249.807,541.522Z" transform="translate(-163.139 -537.711)"/><path class="bq" d="M262.052,543.755v-2.366a1.4,1.4,0,1,1,2.792,0v1.183a.2.2,0,0,1-.213.213h-2.153v.97a.978.978,0,0,0,.6.9.948.948,0,0,0,1.053-.213.2.2,0,0,1,.142-.059.2.2,0,0,1,.213.213.2.2,0,0,1-.059.142,1.343,1.343,0,0,1-1.514.308A1.4,1.4,0,0,1,262.052,543.755Zm.426-2.366v.97h1.94v-.97a.97.97,0,1,0-1.94,0Z" transform="translate(-171.268 -537.627)"/><path class="bq" d="M275.018,545.024a.212.212,0,0,1-.213.213.2.2,0,0,1-.213-.213v-4.685a.2.2,0,0,1,.213-.213h3.549a1.414,1.414,0,0,1,1.4,1.4v3.5a.212.212,0,0,1-.213.213.2.2,0,0,1-.213-.213v-3.5a.975.975,0,0,0-.97-.97h-.97v4.472a.212.212,0,0,1-.213.213.2.2,0,0,1-.213-.213v-4.472h-1.94v4.472Z" transform="translate(-179.313 -537.712)"/><path class="bq" d="M293.732,543.755v-2.366a1.4,1.4,0,1,1,2.792,0v1.183a.2.2,0,0,1-.213.213h-2.153v.97a.978.978,0,0,0,.6.9.948.948,0,0,0,1.053-.213.2.2,0,0,1,.142-.059.2.2,0,0,1,.213.213.2.2,0,0,1-.059.142,1.343,1.343,0,0,1-1.514.308A1.4,1.4,0,0,1,293.732,543.755Zm.426-2.366v.97h1.94v-.97a.97.97,0,1,0-1.94,0Z" transform="translate(-191.593 -537.627)"/><path class="bq" d="M306.272,545.024v-4.685a.2.2,0,0,1,.213-.213h1.183a1.414,1.414,0,0,1,1.4,1.4v3.5a.213.213,0,0,1-.426,0v-3.5a.975.975,0,0,0-.97-.97h-.97v4.472a.213.213,0,0,1-.426,0Z" transform="translate(-199.638 -537.712)"/><path class="bq" d="M317.755,536.019a.2.2,0,0,1,.213-.213h.733v-2.2a.213.213,0,1,1,.426,0v2.2h.97a.213.213,0,1,1,0,.426h-.97v3.289a.974.974,0,0,0,.97.97.213.213,0,0,1,0,.426,1.414,1.414,0,0,1-1.4-1.4v-3.289h-.733A.2.2,0,0,1,317.755,536.019Z" transform="translate(-207.005 -533.392)"/><path class="bq" d="M336.613,543.76a.833.833,0,0,0-.379-.675l-1.1-.781a1.294,1.294,0,0,1-.544-.958,1.27,1.27,0,0,1,.414-1.029,1.237,1.237,0,0,1,1.053-.32,1.268,1.268,0,0,1,.911.627.211.211,0,0,1-.071.3.215.215,0,0,1-.3-.083.809.809,0,0,0-.6-.414.858.858,0,0,0-.71.213.849.849,0,0,0,.095,1.325l1.1.769a1.342,1.342,0,0,1,.556,1.006,1.284,1.284,0,0,1-.426,1.065,1.318,1.318,0,0,1-1.1.331,1.351,1.351,0,0,1-.946-.651.217.217,0,1,1,.378-.213.9.9,0,0,0,1.384.213A.845.845,0,0,0,336.613,543.76Z" transform="translate(-217.772 -537.619)"/><path class="bq" d="M345.837,535.044a.339.339,0,0,1,.332-.331.331.331,0,0,1,0,.663A.339.339,0,0,1,345.837,535.044Zm.332,6.72a.2.2,0,0,1-.213-.213v-4.732a.213.213,0,0,1,.426,0v4.732A.2.2,0,0,1,346.169,541.764Z" transform="translate(-225.021 -534.239)"/><path class="bq" d="M352.371,543.745v-2.366a1.386,1.386,0,0,1,.863-1.29,1.352,1.352,0,0,1,1.514.307.226.226,0,0,1,.059.154.2.2,0,0,1-.059.142.223.223,0,0,1-.154.059.194.194,0,0,1-.142-.059,1.01,1.01,0,0,0-1.065-.213.967.967,0,0,0-.591.9v2.366a.967.967,0,0,0,1.656.686.2.2,0,0,1,.142-.059.2.2,0,0,1,.213.213.2.2,0,0,1-.059.142,1.351,1.351,0,0,1-1.514.307A1.387,1.387,0,0,1,352.371,543.745Z" transform="translate(-229.213 -537.616)"/><path class="bq" d="M363.591,540.7v-7.1a.213.213,0,1,1,.426,0v2.2h.97a1.414,1.414,0,0,1,1.4,1.4v3.5a.213.213,0,0,1-.426,0v-3.5a.975.975,0,0,0-.97-.97h-.97V540.7a.213.213,0,0,1-.426,0Z" transform="translate(-236.411 -533.392)"/><path class="bq" d="M375.074,536.019a.2.2,0,0,1,.213-.213h.733v-2.2a.213.213,0,1,1,.426,0v2.2h.97a.213.213,0,1,1,0,.426h-.97v3.289a.974.974,0,0,0,.97.97.213.213,0,0,1,0,.426,1.414,1.414,0,0,1-1.4-1.4v-3.289h-.733A.2.2,0,0,1,375.074,536.019Z" transform="translate(-243.778 -533.392)"/><path class="bq" d="M386.294,540.656v-7.051a.213.213,0,1,1,.426,0v2.2h.97a1.414,1.414,0,0,1,1.4,1.4v2.271a1.414,1.414,0,0,1-1.4,1.4h-1.183A.2.2,0,0,1,386.294,540.656Zm.426-.212h.97a.975.975,0,0,0,.97-.97V537.2a.975.975,0,0,0-.97-.97h-.97Z" transform="translate(-250.976 -533.392)"/><path class="bq" d="M400.143,541.36a.953.953,0,0,0-1.621-.674.192.192,0,0,1-.154.071.168.168,0,0,1-.142-.071.2.2,0,0,1-.059-.142.223.223,0,0,1,.059-.154,1.345,1.345,0,0,1,1.49-.3,1.374,1.374,0,0,1,.852,1.266v3.525a.2.2,0,0,1-.213.213h-1.183a1.4,1.4,0,1,1,0-2.792h.97v-.947Zm-.97,3.313h.97v-1.94h-.97a.97.97,0,0,0,0,1.94Z" transform="translate(-258.342 -537.621)"/><path class="bq" d="M410.714,545.024v-4.685a.2.2,0,0,1,.213-.213h1.183a1.378,1.378,0,0,1,.7.189.2.2,0,0,1,.083.284.214.214,0,0,1-.3.082,1,1,0,0,0-.485-.13h-.97v4.472a.213.213,0,1,1-.426,0Z" transform="translate(-266.643 -537.712)"/></g></g></g></svg>