<svg xmlns="http://www.w3.org/2000/svg" viewBox="773.629 356.04 191.364 43.96"><defs><style>.a{fill:#fff;}</style></defs><path class="a" d="M26.418,25.958,16.269-10.834a2.886,2.886,0,0,0-2.918-2.22,2.886,2.886,0,0,0-2.918,2.22L.283,25.958A3.011,3.011,0,0,0,2.376,29.7a3.011,3.011,0,0,0,3.743-2.093c.19-.507.317-1.142.507-1.84.317-1.205.761-2.855,1.332-4.821H18.743c.507,1.966,1.015,3.616,1.332,4.821.19.7.317,1.332.507,1.84a3.032,3.032,0,0,0,5.836-1.649Zm-9.388-11.1H9.671C10.877,10.48,12.145,5.6,13.351,1.472,14.556,5.6,15.825,10.48,17.03,14.857ZM30.6,4.517h2.22V26.782a2.855,2.855,0,1,0,5.709,0V4.517h3.489a2.843,2.843,0,0,0,2.855-2.855,2.843,2.843,0,0,0-2.855-2.855H38.534V-4.935a3.439,3.439,0,0,1,3.489-3.489,2.843,2.843,0,0,0,2.855-2.855,2.843,2.843,0,0,0-2.855-2.855,9.2,9.2,0,0,0-9.2,9.2v3.743H30.6A2.843,2.843,0,0,0,27.75,1.662,2.843,2.843,0,0,0,30.6,4.517ZM54.266,28.939a9.193,9.193,0,0,0,10.023-1.966,2.911,2.911,0,0,0,0-4.06,2.876,2.876,0,0,0-2.093-.888,2.7,2.7,0,0,0-1.966.888,3.521,3.521,0,0,1-3.806.761,3.448,3.448,0,0,1-2.157-3.235V16.95H64.1A2.843,2.843,0,0,0,66.953,14.1V7.752a9.2,9.2,0,1,0-18.4,0V20.439A9.007,9.007,0,0,0,54.266,28.939ZM57.755,4.263a3.439,3.439,0,0,1,3.489,3.489v3.489H54.266V7.752A3.439,3.439,0,0,1,57.755,4.263ZM77.61,28.939a9.193,9.193,0,0,0,10.023-1.966,2.911,2.911,0,0,0,0-4.06,2.876,2.876,0,0,0-2.093-.888,2.7,2.7,0,0,0-1.966.888,3.521,3.521,0,0,1-3.806.761,3.448,3.448,0,0,1-2.157-3.235V16.95h9.832A2.843,2.843,0,0,0,90.3,14.1V7.752a9.2,9.2,0,0,0-18.4,0V20.439A9.007,9.007,0,0,0,77.61,28.939ZM81.1,4.263a3.439,3.439,0,0,1,3.489,3.489v3.489H77.61V7.752A3.439,3.439,0,0,1,81.1,4.263Zm14.971.254h2.22V26.782a2.855,2.855,0,0,0,5.709,0V4.517h3.489a2.843,2.843,0,0,0,2.855-2.855,2.843,2.843,0,0,0-2.855-2.855H104V-4.935a3.439,3.439,0,0,1,3.489-3.489,2.843,2.843,0,0,0,2.855-2.855,2.843,2.843,0,0,0-2.855-2.855,9.2,9.2,0,0,0-9.2,9.2v3.743h-2.22a2.843,2.843,0,0,0-2.855,2.855A2.843,2.843,0,0,0,96.069,4.517Zm28.863,6.47h-3.489a9.2,9.2,0,1,0,0,18.4h6.343a2.843,2.843,0,0,0,2.855-2.855V7.625A8.935,8.935,0,0,0,125-.748a8.889,8.889,0,0,0-9.832,1.966,2.842,2.842,0,0,0-.888,2.03,2.842,2.842,0,0,0,.888,2.03,2.638,2.638,0,0,0,1.966.825,2.68,2.68,0,0,0,2.03-.825,3.317,3.317,0,0,1,3.679-.761,3.378,3.378,0,0,1,2.093,3.108ZM121.443,16.7h3.489v6.978h-3.489a3.489,3.489,0,1,1,0-6.978Zm14.59,9.452a3.679,3.679,0,1,0,3.679-3.679A3.682,3.682,0,0,0,136.033,26.148Zm21.695,3.235h6.343a2.843,2.843,0,0,0,2.855-2.855V-11.278a2.843,2.843,0,0,0-2.855-2.855,2.843,2.843,0,0,0-2.855,2.855V-1.192h-3.489a9.2,9.2,0,0,0-9.2,9.2V20.185A9.2,9.2,0,0,0,157.728,29.383Zm0-24.866h3.489V23.674h-3.489a3.439,3.439,0,0,1-3.489-3.489V8.006A3.439,3.439,0,0,1,157.728,4.517Zm21.124,24.422a9.193,9.193,0,0,0,10.023-1.966,2.911,2.911,0,0,0,0-4.06,2.876,2.876,0,0,0-2.093-.888,2.7,2.7,0,0,0-1.966.888,3.521,3.521,0,0,1-3.806.761,3.448,3.448,0,0,1-2.157-3.235V16.95h9.832a2.843,2.843,0,0,0,2.855-2.855V7.752a9.2,9.2,0,0,0-18.4,0V20.439A9.007,9.007,0,0,0,178.851,28.939ZM182.34,4.263a3.439,3.439,0,0,1,3.489,3.489v3.489h-6.978V7.752A3.439,3.439,0,0,1,182.34,4.263Z" transform="translate(773.455 370.173)"/></svg>