<svg xmlns="http://www.w3.org/2000/svg" xmlns:xlink="http://www.w3.org/1999/xlink" viewBox="666 0 400 400"><defs><style>.a{clip-path:url(#b);}.b{fill:#966c6c;}.c{fill:#360a21;}.d{fill:#1a1515;}.e{fill:#f4e7a8;}.f{fill:#cc8692;}.g{fill:#fff;}.h{fill:#a0a77a;}.i{fill:#4c3f05;}.j{fill:#39310a;}.k{fill:#ddaeb7;}.l{fill:#261f20;}.m{fill:#4e3f42;}.n{fill:#de8138;}.o{fill:#e4c326;}.p{fill:#e59a60;}.q{fill:#ebb388;}.r{fill:#e9cf51;}.s{fill:#925550;}.t{fill:#efdb7d;}.u{fill:#cdcbb2;}.v{fill:#ada753;}.w{fill:#dedcba;}.x{fill:#d8afac;}.y{fill:#9e3830;}.z{fill:#ecd7d6;}.aa{fill:#772a24;}.ab{fill:#4f1c18;}.ac{fill:#ab921d;}.ad{fill:#827d3e;}.ae{fill:#ceca98;}.af{fill:#d69ea8;}.ag{fill:#726213;}.ah{fill:#8e7746;}.ai{fill:#c0bea8;}.aj{fill:#bdb975;}.ak{fill:#733b7c;}.al{fill:#492144;}.am{fill:#d5e8e9;}.an{fill:#5b6a69;}.ao{fill:#103637;}.ap{fill:#185053;}.aq{fill:#301e1f;}.ar{fill:#5779a1;}.as{fill:#206b6e;}.at{fill:#819ab9;}.au{fill:#abbcd0;}.av{fill:#aad2d4;}.aw{fill:#c57570;}.ax{fill:#bbdbdd;}.ay{fill:#d2e1e2;}.az{fill:#ddedee;}.ba{fill:#baa2a0;}.bb{fill:#744440;}.bc{fill:#dcd0cf;}.bd{fill:#521511;}.be{fill:#3d100c;}.bf{fill:#2b8e93;}.bg{fill:#80bbbe;}.bh{fill:#9ccad6;}.bi{fill:#d3f0f1;}.bj{fill:#cfdada;}.bk{fill:#79a6a8;}.bl{fill:#468e8c;}.bm{fill:#a6c4c5;}.bn{fill:#c07fbd;}.bo{fill:#692620;}</style><clipPath id="b"><rect x="666" width="400" height="400"/></clipPath></defs><g id="a" class="a"><g transform="translate(758)"><path class="b" d="M8.807,211.517,0,73.393v83.34Z" transform="translate(0 1.899)"/><path class="c" d="M0,74.859,27.677,16.723,8.235,121.144,0,158.2Z" transform="translate(0 0.433)"/><path class="d" d="M203.24,210.649l26.076-103.713-17.272,48.929Z" transform="translate(5.259 2.767)"/><path class="e" d="M78.35,180.02H90.36L70.346,268.676,30.66,172.357l4.229,4.233,5.949,5.489,12.809,2.287Z" transform="translate(0.793 4.46)"/><path class="f" d="M108.654,50.1,34.769,66.754,8.235,120.28,0,157.336Z" transform="translate(0 1.296)"/><path class="g" d="M78.243,180.121l-11.435-9.607L48.27,168.455l-13.488,8.236,5.949,5.49,12.809,2.287Z" transform="translate(0.9 4.359)"/><path class="h" d="M64.374,173.886a8.664,8.664,0,1,1-8.663-8.663,8.661,8.661,0,0,1,8.663,8.663" transform="translate(1.217 4.276)"/><path d="M59.085,172.913a3.26,3.26,0,1,1-3.26-3.26,3.261,3.261,0,0,1,3.26,3.26" transform="translate(1.36 4.39)"/><path class="g" d="M57.463,172.771a.944.944,0,1,1-.942-.944.943.943,0,0,1,.942.944" transform="translate(1.438 4.446)"/><path class="i" d="M66.913,164.776l10.522,15.441L66,170.61Z" transform="translate(1.708 4.264)"/><path class="j" d="M66.53,170.7l-18.536-2.059L45.485,161.1l21.96,3.772Z" transform="translate(1.177 4.169)"/><path class="k" d="M108.654,50.1V166.715L81.2,155.506l-43.917-7.777L0,157.336Z" transform="translate(0 1.296)"/><path class="l" d="M16.7,150.642l20.149-5.191,43.917,7.778L76.2,142.249l-36.6-4.118Z" transform="translate(0.432 3.574)"/><path class="m" d="M34.782,176.483l5.075,6.117,13.983,2.7,24.4-5.388-24.7,4.345-12.808-2.287Z" transform="translate(0.9 4.567)"/><path d="M34.782,176.691l13.5-7.681,18.5,1.747,11.452,9.365-11.436-9.607-18.537-2.06Z" transform="translate(0.9 4.359)"/><path class="n" d="M24.081,263.219l24.467,28.136,42.41,28.564L70.517,266.324Z" transform="translate(0.623 6.811)"/><path class="o" d="M0,154.631l8.806,54.784,22.645-36.6Z" transform="translate(0 4.001)"/><path class="p" d="M70.917,267.752l-46.435-3.105-15.9-56.614L34.09,253.21Z" transform="translate(0.222 5.383)"/><path class="q" d="M89.788,319.84l17.072,1.536V291.962L89.017,290.59,69.345,266.246Z" transform="translate(1.794 6.89)"/><path class="r" d="M31.23,172.357l39.688,96.319L34.089,254.133l-25.5-45.177Z" transform="translate(0.222 4.46)"/><path class="s" d="M106.675,239.767H87.688l-11.217-5.088Z" transform="translate(1.979 6.073)"/><path class="t" d="M87.872,239.767l10.581,12.868L69.345,267.063l7.31-32.384Z" transform="translate(1.794 6.073)"/><path class="u" d="M106.125,239.639v15.868l-8.406-3Z" transform="translate(2.529 6.201)"/><path class="v" d="M97.985,252.507,87.4,239.639h18.986Z" transform="translate(2.262 6.201)"/><path class="w" d="M106.219,163.773,94.1,219.128l12.122,6.862Z" transform="translate(2.435 4.238)"/><path class="x" d="M69.345,266.246l19.672,24.343,17.841,1.373v-8.235L89.788,283.5Z" transform="translate(1.794 6.89)"/><path class="y" d="M106.859,283.727V271.375l-37.513-5.129Z" transform="translate(1.795 6.89)"/><path class="z" d="M106.859,283.727,69.346,266.246,89.787,283.5Z" transform="translate(1.795 6.89)"/><path class="z" d="M106.859,255.183l-8.406-3L69.346,266.61l25.391-4.649,12.122,1.454Z" transform="translate(1.795 6.526)"/><path class="aa" d="M106.859,267.6l-37.513-1.24,25.391-4.649,12.122,1.454Z" transform="translate(1.795 6.773)"/><path class="ab" d="M106.859,267.486l-37.513-1.24,37.513,5.129Z" transform="translate(1.795 6.89)"/><path class="ac" d="M37.286,145.266,0,154.873l31.452,18.185Z" transform="translate(0 3.759)"/><path class="o" d="M30.659,173.058l15.21-11.55-9.377-16.242Z" transform="translate(0.793 3.759)"/><path class="r" d="M45.722,161.508l21.959,3.774,12.582-12.239-43.919-7.777Z" transform="translate(0.941 3.759)"/><path class="ad" d="M89.174,179.827l5.378,38.886L76.471,236.1Z" transform="translate(1.979 4.653)"/><path class="ae" d="M88.854,180.242l17.5-16.469L94.232,219.128Z" transform="translate(2.299 4.238)"/><path class="af" d="M106.605,164.056,79.154,152.847,89.1,180.526Z" transform="translate(2.048 3.955)"/><path class="t" d="M77.412,180.525h12.01l-9.95-27.677L66.89,165.085Z" transform="translate(1.731 3.955)"/><path class="ag" d="M48.378,168.645,45.87,161.1l-15.211,11.55,4.231,4.232Z" transform="translate(0.793 4.169)"/><path class="ah" d="M106.392,239.837,96.212,232l-8.807,4.56Z" transform="translate(2.262 6.004)"/><path class="ai" d="M94.1,217.732l1.943,14.64,10.178,7.834V224.594Z" transform="translate(2.435 5.634)"/><path class="aj" d="M94.553,217.732l1.943,14.64-8.807,4.559-11.218-1.814Z" transform="translate(1.979 5.634)"/><path class="ak" d="M107.956,51.4,34.071,68.051,26.979,17.156,107.956,0Z" transform="translate(0.698)"/><path class="al" d="M27.469,16.723,8.028,121.144,34.561,67.618Z" transform="translate(0.208 0.433)"/><path class="am" d="M134.979,180.02h-12.01l20.015,88.655,39.686-96.319-4.231,4.233-5.949,5.489-12.809,2.287Z" transform="translate(3.182 4.46)"/><path class="x" d="M105.913,50.1,179.8,66.754l26.535,53.526,8.232,37.056Z" transform="translate(2.741 1.296)"/><path class="g" d="M134.676,180.121l11.436-9.607,18.539-2.059,13.485,8.236-5.949,5.49-12.809,2.287Z" transform="translate(3.485 4.359)"/><path class="an" d="M147.887,173.886a8.664,8.664,0,1,0,8.663-8.663,8.662,8.662,0,0,0-8.663,8.663" transform="translate(3.827 4.276)"/><path d="M152.9,172.913a3.26,3.26,0,1,0,3.261-3.26,3.262,3.262,0,0,0-3.261,3.26" transform="translate(3.957 4.39)"/><path class="g" d="M154.408,172.771a.944.944,0,1,0,.944-.944.944.944,0,0,0-.944.944" transform="translate(3.996 4.446)"/><path class="ao" d="M145.2,164.776l-10.521,15.441,11.438-9.606Z" transform="translate(3.485 4.264)"/><path class="ap" d="M145.847,170.7l18.538-2.059,2.507-7.547-21.96,3.772Z" transform="translate(3.751 4.169)"/><path class="z" d="M105.913,50.1V166.715l27.449-11.209,43.917-7.777,37.284,9.607Z" transform="translate(2.741 1.296)"/><path class="aq" d="M196.733,150.642l-20.146-5.191-43.917,7.778,4.573-10.98,36.6-4.118Z" transform="translate(3.433 3.574)"/><path class="m" d="M178.137,176.483l-5.076,6.117-13.982,2.7-24.4-5.388,24.7,4.345,12.808-2.287Z" transform="translate(3.485 4.567)"/><path d="M178.137,176.691l-13.5-7.681-18.507,1.747-11.451,9.365,11.435-9.607,18.539-2.06Z" transform="translate(3.485 4.359)"/><path class="ar" d="M189.431,263.219l-24.467,28.136-42.412,28.564,20.443-53.594Z" transform="translate(3.171 6.811)"/><path class="as" d="M212.615,154.631l-8.8,54.784-22.646-36.6Z" transform="translate(4.688 4.001)"/><path class="at" d="M142.479,267.752l46.436-3.105,15.9-56.614L179.307,253.21Z" transform="translate(3.687 5.383)"/><path class="au" d="M122.982,319.84l-17.07,1.536V291.962l17.843-1.372,19.67-24.344Z" transform="translate(2.741 6.89)"/><path class="av" d="M182.165,172.357l-39.686,96.319,36.829-14.543,25.5-45.177Z" transform="translate(3.687 4.46)"/><path class="aw" d="M105.913,239.767H124.9l11.218-5.088Z" transform="translate(2.741 6.073)"/><path class="ax" d="M124.685,239.767l-10.58,12.868,29.108,14.428L135.9,234.679Z" transform="translate(2.953 6.073)"/><path class="ay" d="M105.913,239.639v15.868l8.4-3Z" transform="translate(2.741 6.201)"/><path class="az" d="M114.318,252.507l10.58-12.868H105.913Z" transform="translate(2.741 6.201)"/><path class="ay" d="M105.913,163.773l12.122,55.355-12.122,6.862Z" transform="translate(2.741 4.238)"/><path class="ba" d="M143.425,266.246l-19.671,24.343-17.841,1.373v-8.235l17.069-.229Z" transform="translate(2.741 6.89)"/><path class="bb" d="M105.913,283.727V271.375l37.512-5.129Z" transform="translate(2.741 6.89)"/><path class="bc" d="M105.913,283.727l37.512-17.481L122.983,283.5Z" transform="translate(2.741 6.89)"/><path class="ba" d="M105.913,255.183l8.4-3,29.108,14.428-25.39-4.649-12.122,1.454Z" transform="translate(2.741 6.526)"/><path class="bd" d="M105.913,267.6l37.512-1.24-25.39-4.649-12.122,1.454Z" transform="translate(2.741 6.773)"/><path class="be" d="M105.913,267.486l37.512-1.24-37.512,5.129Z" transform="translate(2.741 6.89)"/><path class="bf" d="M175.48,145.266l37.283,9.607-31.451,18.185Z" transform="translate(4.541 3.759)"/><path class="bg" d="M181.548,173.058l-15.21-11.55,9.378-16.242Z" transform="translate(4.304 3.759)"/><path class="av" d="M167.209,161.508l-21.959,3.774-12.581-12.239,43.919-7.777Z" transform="translate(3.433 3.759)"/><path class="bh" d="M123.1,179.827l-5.376,38.886,18.08,17.386Z" transform="translate(3.047 4.653)"/><path class="bi" d="M123.41,180.242l-17.5-16.469,12.123,55.355Z" transform="translate(2.741 4.238)"/><path class="bj" d="M105.913,164.056l27.449-11.209-9.951,27.679Z" transform="translate(2.741 3.955)"/><path class="am" d="M134.979,180.525h-12.01l9.951-27.677L145.5,165.085Z" transform="translate(3.182 3.955)"/><path class="bk" d="M163.9,168.645,166.4,161.1l15.212,11.55-4.232,4.232Z" transform="translate(4.241 4.169)"/><path class="bl" d="M105.913,239.837,116.092,232l8.806,4.56Z" transform="translate(2.741 6.004)"/><path class="bm" d="M118.035,217.732l-1.944,14.64-10.178,7.834V224.594Z" transform="translate(2.741 5.634)"/><path class="bm" d="M117.778,217.732l-1.944,14.64,8.806,4.559,11.218-1.814Z" transform="translate(2.997 5.634)"/><path class="bn" d="M105.913,51.4,179.8,68.051l7.091-50.895L105.913,0Z" transform="translate(2.741)"/><path class="y" d="M185.023,16.723l19.443,104.421L177.932,67.618Z" transform="translate(4.604 0.433)"/><path class="bo" d="M229.792,109.272,184.844,16.723l19.445,104.421L212.52,158.2Z" transform="translate(4.783 0.433)"/></g><path class="g" d="M26.418,25.958,16.269-10.834a2.886,2.886,0,0,0-2.918-2.22,2.886,2.886,0,0,0-2.918,2.22L.283,25.958A3.011,3.011,0,0,0,2.376,29.7a3.011,3.011,0,0,0,3.743-2.093c.19-.507.317-1.142.507-1.84.317-1.205.761-2.855,1.332-4.821H18.743c.507,1.966,1.015,3.616,1.332,4.821.19.7.317,1.332.507,1.84a3.032,3.032,0,0,0,5.836-1.649Zm-9.388-11.1H9.671C10.877,10.48,12.145,5.6,13.351,1.472,14.556,5.6,15.825,10.48,17.03,14.857ZM30.6,4.517h2.22V26.782a2.855,2.855,0,1,0,5.709,0V4.517h3.489a2.843,2.843,0,0,0,2.855-2.855,2.843,2.843,0,0,0-2.855-2.855H38.534V-4.935a3.439,3.439,0,0,1,3.489-3.489,2.843,2.843,0,0,0,2.855-2.855,2.843,2.843,0,0,0-2.855-2.855,9.2,9.2,0,0,0-9.2,9.2v3.743H30.6A2.843,2.843,0,0,0,27.75,1.662,2.843,2.843,0,0,0,30.6,4.517ZM54.266,28.939a9.193,9.193,0,0,0,10.023-1.966,2.911,2.911,0,0,0,0-4.06,2.876,2.876,0,0,0-2.093-.888,2.7,2.7,0,0,0-1.966.888,3.521,3.521,0,0,1-3.806.761,3.448,3.448,0,0,1-2.157-3.235V16.95H64.1A2.843,2.843,0,0,0,66.953,14.1V7.752a9.2,9.2,0,1,0-18.4,0V20.439A9.007,9.007,0,0,0,54.266,28.939ZM57.755,4.263a3.439,3.439,0,0,1,3.489,3.489v3.489H54.266V7.752A3.439,3.439,0,0,1,57.755,4.263ZM77.61,28.939a9.193,9.193,0,0,0,10.023-1.966,2.911,2.911,0,0,0,0-4.06,2.876,2.876,0,0,0-2.093-.888,2.7,2.7,0,0,0-1.966.888,3.521,3.521,0,0,1-3.806.761,3.448,3.448,0,0,1-2.157-3.235V16.95h9.832A2.843,2.843,0,0,0,90.3,14.1V7.752a9.2,9.2,0,0,0-18.4,0V20.439A9.007,9.007,0,0,0,77.61,28.939ZM81.1,4.263a3.439,3.439,0,0,1,3.489,3.489v3.489H77.61V7.752A3.439,3.439,0,0,1,81.1,4.263Zm14.971.254h2.22V26.782a2.855,2.855,0,0,0,5.709,0V4.517h3.489a2.843,2.843,0,0,0,2.855-2.855,2.843,2.843,0,0,0-2.855-2.855H104V-4.935a3.439,3.439,0,0,1,3.489-3.489,2.843,2.843,0,0,0,2.855-2.855,2.843,2.843,0,0,0-2.855-2.855,9.2,9.2,0,0,0-9.2,9.2v3.743h-2.22a2.843,2.843,0,0,0-2.855,2.855A2.843,2.843,0,0,0,96.069,4.517Zm28.863,6.47h-3.489a9.2,9.2,0,1,0,0,18.4h6.343a2.843,2.843,0,0,0,2.855-2.855V7.625A8.935,8.935,0,0,0,125-.748a8.889,8.889,0,0,0-9.832,1.966,2.842,2.842,0,0,0-.888,2.03,2.842,2.842,0,0,0,.888,2.03,2.638,2.638,0,0,0,1.966.825,2.68,2.68,0,0,0,2.03-.825,3.317,3.317,0,0,1,3.679-.761,3.378,3.378,0,0,1,2.093,3.108ZM121.443,16.7h3.489v6.978h-3.489a3.489,3.489,0,1,1,0-6.978Zm14.59,9.452a3.679,3.679,0,1,0,3.679-3.679A3.682,3.682,0,0,0,136.033,26.148Zm21.695,3.235h6.343a2.843,2.843,0,0,0,2.855-2.855V-11.278a2.843,2.843,0,0,0-2.855-2.855,2.843,2.843,0,0,0-2.855,2.855V-1.192h-3.489a9.2,9.2,0,0,0-9.2,9.2V20.185A9.2,9.2,0,0,0,157.728,29.383Zm0-24.866h3.489V23.674h-3.489a3.439,3.439,0,0,1-3.489-3.489V8.006A3.439,3.439,0,0,1,157.728,4.517Zm21.124,24.422a9.193,9.193,0,0,0,10.023-1.966,2.911,2.911,0,0,0,0-4.06,2.876,2.876,0,0,0-2.093-.888,2.7,2.7,0,0,0-1.966.888,3.521,3.521,0,0,1-3.806.761,3.448,3.448,0,0,1-2.157-3.235V16.95h9.832a2.843,2.843,0,0,0,2.855-2.855V7.752a9.2,9.2,0,0,0-18.4,0V20.439A9.007,9.007,0,0,0,178.851,28.939ZM182.34,4.263a3.439,3.439,0,0,1,3.489,3.489v3.489h-6.978V7.752A3.439,3.439,0,0,1,182.34,4.263Z" transform="translate(773.455 370.173)"/></g></svg>