<svg xmlns="http://www.w3.org/2000/svg" xmlns:xlink="http://www.w3.org/1999/xlink" viewBox="0 0 576.555 625.704"><defs><style>.a{fill:#e6e6e6;}.b{clip-path:url(#a);}.c{fill:#966c6c;}.d{fill:#360a21;}.e{fill:#1a1515;}.f{fill:#f4e7a8;}.g{fill:#cc8692;}.h{fill:#fff;}.i{fill:#a0a77a;}.j{fill:#4c3f05;}.k{fill:#39310a;}.l{fill:#ddaeb7;}.m{fill:#261f20;}.n{fill:#4e3f42;}.o{fill:#de8138;}.p{fill:#e4c326;}.q{fill:#e59a60;}.r{fill:#ebb388;}.s{fill:#e9cf51;}.t{fill:#925550;}.u{fill:#efdb7d;}.v{fill:#cdcbb2;}.w{fill:#ada753;}.x{fill:#dedcba;}.y{fill:#d8afac;}.z{fill:#9e3830;}.aa{fill:#ecd7d6;}.ab{fill:#772a24;}.ac{fill:#4f1c18;}.ad{fill:#ab921d;}.ae{fill:#827d3e;}.af{fill:#ceca98;}.ag{fill:#d69ea8;}.ah{fill:#726213;}.ai{fill:#8e7746;}.aj{fill:#c0bea8;}.ak{fill:#bdb975;}.al{fill:#733b7c;}.am{fill:#492144;}.an{fill:#d5e8e9;}.ao{fill:#5b6a69;}.ap{fill:#103637;}.aq{fill:#185053;}.ar{fill:#301e1f;}.as{fill:#5779a1;}.at{fill:#206b6e;}.au{fill:#819ab9;}.av{fill:#abbcd0;}.aw{fill:#aad2d4;}.ax{fill:#c57570;}.ay{fill:#bbdbdd;}.az{fill:#d2e1e2;}.ba{fill:#ddedee;}.bb{fill:#baa2a0;}.bc{fill:#744440;}.bd{fill:#dcd0cf;}.be{fill:#521511;}.bf{fill:#3d100c;}.bg{fill:#2b8e93;}.bh{fill:#80bbbe;}.bi{fill:#9ccad6;}.bj{fill:#d3f0f1;}.bk{fill:#cfdada;}.bl{fill:#79a6a8;}.bm{fill:#468e8c;}.bn{fill:#a6c4c5;}.bo{fill:#c07fbd;}.bp{fill:#692620;}</style><clipPath id="a"><rect width="434.5" height="434.5" transform="translate(206)"/></clipPath></defs><g transform="translate(-482.673 -68.5)"><path class="a" d="M31.62-53.04a1.583,1.583,0,0,0-2.295.425L10.2-25.755V-51.68A1.634,1.634,0,0,0,8.5-53.3,1.563,1.563,0,0,0,6.885-51.68v49.3A1.563,1.563,0,0,0,8.5-.765,1.634,1.634,0,0,0,10.2-2.38V-20.145l6.035-8.415L29.155-1.7a1.528,1.528,0,0,0,2.21.765A1.658,1.658,0,0,0,32.13-3.06L18.36-31.62l13.6-19.125A1.646,1.646,0,0,0,31.62-53.04ZM44.285-.85a1.428,1.428,0,0,0,1.53-1.53V-34.51h6.97a7,7,0,0,1,6.97,6.97V-2.38a1.428,1.428,0,0,0,1.53,1.53,1.428,1.428,0,0,0,1.53-1.53V-27.54a10.16,10.16,0,0,0-10.03-10.03h-8.5a1.428,1.428,0,0,0-1.53,1.53V-2.38A1.428,1.428,0,0,0,44.285-.85Zm45.39-20.4H82.7a10.16,10.16,0,0,0-10.03,10.03A10.16,10.16,0,0,0,82.7-1.19h8.5a1.428,1.428,0,0,0,1.53-1.53V-28.05a9.87,9.87,0,0,0-6.12-9.095A9.673,9.673,0,0,0,75.9-35.02a1.616,1.616,0,0,0-.425,1.105A1.408,1.408,0,0,0,75.9-32.9a1.212,1.212,0,0,0,1.02.51,1.371,1.371,0,0,0,1.105-.51,6.776,6.776,0,0,1,7.395-1.445,6.8,6.8,0,0,1,4.25,6.29ZM75.735-11.22a6.894,6.894,0,0,1,6.97-6.97h6.97V-4.25H82.7A6.894,6.894,0,0,1,75.735-11.22ZM109.9-1.02a1.544,1.544,0,0,0,2.125-.6,1.544,1.544,0,0,0-.6-2.125,5.114,5.114,0,0,1-2.635-4.5V-53.38a1.428,1.428,0,0,0-1.53-1.53,1.522,1.522,0,0,0-1.53,1.53V-8.245A8.381,8.381,0,0,0,109.9-1.02Zm17,0a1.544,1.544,0,0,0,2.125-.6,1.544,1.544,0,0,0-.6-2.125,5.114,5.114,0,0,1-2.635-4.5V-53.38a1.428,1.428,0,0,0-1.53-1.53,1.522,1.522,0,0,0-1.53,1.53V-8.245A8.381,8.381,0,0,0,126.9-1.02Zm14.62-.17h8.5a10.16,10.16,0,0,0,10.03-10.03V-27.54a10.16,10.16,0,0,0-10.03-10.03h-6.97V-53.38a1.428,1.428,0,0,0-1.53-1.53,1.428,1.428,0,0,0-1.53,1.53V-2.72A1.428,1.428,0,0,0,141.525-1.19Zm1.53-33.32h6.97a7,7,0,0,1,6.97,6.97v16.32a7,7,0,0,1-6.97,6.97h-6.97Zm39.27,33.32h8.5a1.428,1.428,0,0,0,1.53-1.53V-36.38a1.428,1.428,0,0,0-1.53-1.53,1.428,1.428,0,0,0-1.53,1.53V-4.25h-6.97a7,7,0,0,1-6.97-6.97V-36.38a1.428,1.428,0,0,0-1.53-1.53,1.428,1.428,0,0,0-1.53,1.53v25.16A10.16,10.16,0,0,0,182.325-1.19Zm25.5.34a1.428,1.428,0,0,0,1.53-1.53V-34.51h6.97a7,7,0,0,1,6.97,6.97V-2.38a1.428,1.428,0,0,0,1.53,1.53,1.428,1.428,0,0,0,1.53-1.53V-27.54a10.16,10.16,0,0,0-10.03-10.03h-8.5a1.428,1.428,0,0,0-1.53,1.53V-2.38A1.428,1.428,0,0,0,207.825-.85ZM237.4-34.51h5.27v23.63A10.16,10.16,0,0,0,252.7-.85a1.428,1.428,0,0,0,1.53-1.53,1.428,1.428,0,0,0-1.53-1.53,7,7,0,0,1-6.97-6.97V-34.51h6.97a1.428,1.428,0,0,0,1.53-1.53,1.428,1.428,0,0,0-1.53-1.53h-6.97V-53.38a1.428,1.428,0,0,0-1.53-1.53,1.428,1.428,0,0,0-1.53,1.53v15.81H237.4a1.428,1.428,0,0,0-1.53,1.53A1.428,1.428,0,0,0,237.4-34.51Zm32.555,32.9a9.649,9.649,0,0,0,10.88-2.21,1.408,1.408,0,0,0,.425-1.02,1.616,1.616,0,0,0-.425-1.1,1.616,1.616,0,0,0-1.105-.425,1.408,1.408,0,0,0-1.02.425,6.8,6.8,0,0,1-7.565,1.53,7.022,7.022,0,0,1-4.335-6.46v-6.97h15.47a1.428,1.428,0,0,0,1.53-1.53v-8.5a10.16,10.16,0,0,0-10.03-10.03,10.16,10.16,0,0,0-10.03,10.03v17A10.093,10.093,0,0,0,269.96-1.615Zm3.825-33.235a7,7,0,0,1,6.97,6.97v6.97h-13.94v-6.97A7,7,0,0,1,273.785-34.85Zm23.8,34a1.428,1.428,0,0,0,1.53-1.53V-34.51h6.97a7.13,7.13,0,0,1,3.485.935,1.544,1.544,0,0,0,2.125-.6,1.467,1.467,0,0,0-.6-2.04,9.9,9.9,0,0,0-5.015-1.36h-8.5a1.428,1.428,0,0,0-1.53,1.53V-2.38A1.428,1.428,0,0,0,297.585-.85ZM351.9-5.865a8.456,8.456,0,0,1-7.225,1.7,8.9,8.9,0,0,1-5.95-4.335,1.685,1.685,0,0,0-2.21-.6,1.535,1.535,0,0,0-.68,2.21A12.216,12.216,0,0,0,344.08-1.02a11.9,11.9,0,0,0,9.775-2.21,12.263,12.263,0,0,0,4.845-8.84,12.087,12.087,0,0,0-3.4-9.435L341.7-35.53a8.275,8.275,0,0,1-2.38-6.63,8.785,8.785,0,0,1,3.4-6.12,8.207,8.207,0,0,1,6.8-1.615,9.1,9.1,0,0,1,5.78,4.165,1.643,1.643,0,0,0,2.21.6,1.667,1.667,0,0,0,.6-2.3,11.687,11.687,0,0,0-7.9-5.61,11.913,11.913,0,0,0-9.52,2.125,12.027,12.027,0,0,0-4.59,8.5,11.881,11.881,0,0,0,3.315,9.18L352.92-19.3a8.945,8.945,0,0,1,2.55,6.97A9.219,9.219,0,0,1,351.9-5.865ZM368.05-34.51h5.27v23.63A10.16,10.16,0,0,0,383.35-.85a1.428,1.428,0,0,0,1.53-1.53,1.428,1.428,0,0,0-1.53-1.53,7,7,0,0,1-6.97-6.97V-34.51h6.97a1.428,1.428,0,0,0,1.53-1.53,1.428,1.428,0,0,0-1.53-1.53h-6.97V-53.38a1.428,1.428,0,0,0-1.53-1.53,1.428,1.428,0,0,0-1.53,1.53v15.81h-5.27a1.428,1.428,0,0,0-1.53,1.53A1.428,1.428,0,0,0,368.05-34.51Zm40.97,13.26h-6.97a10.16,10.16,0,0,0-10.03,10.03A10.16,10.16,0,0,0,402.05-1.19h8.5a1.428,1.428,0,0,0,1.53-1.53V-28.05a9.87,9.87,0,0,0-6.12-9.095,9.673,9.673,0,0,0-10.71,2.125,1.616,1.616,0,0,0-.425,1.105,1.408,1.408,0,0,0,.425,1.02,1.212,1.212,0,0,0,1.02.51,1.371,1.371,0,0,0,1.1-.51,6.776,6.776,0,0,1,7.4-1.445,6.8,6.8,0,0,1,4.25,6.29ZM395.08-11.22a6.894,6.894,0,0,1,6.97-6.97h6.97V-4.25h-6.97A6.894,6.894,0,0,1,395.08-11.22ZM434.35-1.19h8.5a1.428,1.428,0,0,0,1.53-1.53V-53.38a1.428,1.428,0,0,0-1.53-1.53,1.428,1.428,0,0,0-1.53,1.53v15.81h-6.97a10.16,10.16,0,0,0-10.03,10.03v16.32A10.16,10.16,0,0,0,434.35-1.19Zm0-33.32h6.97V-4.25h-6.97a7,7,0,0,1-6.97-6.97V-27.54A7,7,0,0,1,434.35-34.51Zm21.76,0h5.27v23.63A10.16,10.16,0,0,0,471.41-.85a1.428,1.428,0,0,0,1.53-1.53,1.428,1.428,0,0,0-1.53-1.53,7,7,0,0,1-6.97-6.97V-34.51h6.97a1.428,1.428,0,0,0,1.53-1.53,1.428,1.428,0,0,0-1.53-1.53h-6.97V-53.38a1.428,1.428,0,0,0-1.53-1.53,1.428,1.428,0,0,0-1.53,1.53v15.81h-5.27a1.428,1.428,0,0,0-1.53,1.53A1.428,1.428,0,0,0,456.11-34.51Zm28.9,50.66a1.428,1.428,0,0,0,1.53-1.53V-1.19h6.97a10.16,10.16,0,0,0,10.03-10.03V-27.54a10.16,10.16,0,0,0-10.03-10.03h-8.5a1.428,1.428,0,0,0-1.53,1.53V14.62A1.428,1.428,0,0,0,485.01,16.15Zm15.47-43.69v16.32a7,7,0,0,1-6.97,6.97h-6.97V-34.51h6.97A7,7,0,0,1,500.48-27.54ZM520.37-1.02a1.544,1.544,0,0,0,2.125-.6,1.544,1.544,0,0,0-.6-2.125,5.114,5.114,0,0,1-2.635-4.5V-53.38a1.428,1.428,0,0,0-1.53-1.53,1.522,1.522,0,0,0-1.53,1.53V-8.245A8.381,8.381,0,0,0,520.37-1.02Zm26.69-20.23h-6.97a10.16,10.16,0,0,0-10.03,10.03A10.16,10.16,0,0,0,540.09-1.19h8.5a1.428,1.428,0,0,0,1.53-1.53V-28.05A9.87,9.87,0,0,0,544-37.145a9.673,9.673,0,0,0-10.71,2.125,1.616,1.616,0,0,0-.425,1.105,1.408,1.408,0,0,0,.425,1.02,1.212,1.212,0,0,0,1.02.51,1.371,1.371,0,0,0,1.1-.51,6.776,6.776,0,0,1,7.4-1.445,6.8,6.8,0,0,1,4.25,6.29ZM533.12-11.22a6.894,6.894,0,0,1,6.97-6.97h6.97V-4.25h-6.97A6.894,6.894,0,0,1,533.12-11.22ZM564.91-.85a1.428,1.428,0,0,0,1.53-1.53V-34.51h6.97a7,7,0,0,1,6.97,6.97V-2.38a1.428,1.428,0,0,0,1.53,1.53,1.428,1.428,0,0,0,1.53-1.53V-27.54a10.16,10.16,0,0,0-10.03-10.03h-8.5a1.428,1.428,0,0,0-1.53,1.53V-2.38A1.428,1.428,0,0,0,564.91-.85Z" transform="translate(475.788 640)"/><path class="a" d="M-281.316-.306a4.745,4.745,0,0,0,4.76-4.726v-15.64a.654.654,0,0,0-.68-.646.625.625,0,0,0-.646.646v15.64A3.424,3.424,0,0,1-281.316-1.6a3.417,3.417,0,0,1-3.4-3.434v-15.64a.654.654,0,0,0-.68-.646.625.625,0,0,0-.646.646v15.64A4.738,4.738,0,0,0-281.316-.306Zm1.734-26.146a.987.987,0,0,0,.986.986,1.016,1.016,0,0,0,1.02-.986,1.016,1.016,0,0,0-1.02-.986A.987.987,0,0,0-279.582-26.452Zm-4.454.986a1.016,1.016,0,0,0,1.02-.986,1.016,1.016,0,0,0-1.02-.986.987.987,0,0,0-.986.986A.987.987,0,0,0-284.036-25.466Zm13.328,24.99h3.4A4.064,4.064,0,0,0-263.3-4.488v-6.528a4.064,4.064,0,0,0-4.012-4.012H-270.1v-6.324a.571.571,0,0,0-.612-.612.571.571,0,0,0-.612.612V-1.088A.571.571,0,0,0-270.708-.476ZM-270.1-13.8h2.788a2.8,2.8,0,0,1,2.788,2.788v6.528A2.8,2.8,0,0,1-267.308-1.7H-270.1ZM-256.054-.646A3.86,3.86,0,0,0-251.7-1.53a.563.563,0,0,0,.17-.408.646.646,0,0,0-.17-.442.646.646,0,0,0-.442-.17.563.563,0,0,0-.408.17,2.722,2.722,0,0,1-3.026.612,2.809,2.809,0,0,1-1.734-2.584V-7.14h6.188a.571.571,0,0,0,.612-.612v-3.4a4.064,4.064,0,0,0-4.012-4.012,4.064,4.064,0,0,0-4.012,4.012v6.8A4.037,4.037,0,0,0-256.054-.646Zm1.53-13.294a2.8,2.8,0,0,1,2.788,2.788v2.788h-5.576v-2.788A2.8,2.8,0,0,1-254.524-13.94ZM-245-.34a.571.571,0,0,0,.612-.612V-13.8h2.788a2.852,2.852,0,0,1,1.394.374.617.617,0,0,0,.85-.238.587.587,0,0,0-.238-.816,3.961,3.961,0,0,0-2.006-.544H-245a.571.571,0,0,0-.612.612V-.952A.571.571,0,0,0-245-.34Zm13.906-1.9a2.386,2.386,0,0,1-2.142.646,2.383,2.383,0,0,1-1.836-1.258.617.617,0,0,0-.85-.238.617.617,0,0,0-.238.85,3.887,3.887,0,0,0,2.72,1.87,3.789,3.789,0,0,0,3.162-.952,3.691,3.691,0,0,0,1.224-3.06,3.855,3.855,0,0,0-1.6-2.89l-3.162-2.21a2.354,2.354,0,0,1-1.054-1.836,2.367,2.367,0,0,1,.782-1.972,2.466,2.466,0,0,1,2.04-.612,2.329,2.329,0,0,1,1.734,1.19.617.617,0,0,0,.85.238.608.608,0,0,0,.2-.85,3.647,3.647,0,0,0-2.618-1.8,3.553,3.553,0,0,0-3.026.918,3.646,3.646,0,0,0-1.19,2.958A3.717,3.717,0,0,0-234.532-8.5l3.162,2.244a2.393,2.393,0,0,1,1.088,1.938A2.435,2.435,0,0,1-231.1-2.244Zm7.446-16.456a.95.95,0,0,0,.952-.952.95.95,0,0,0-.952-.952.973.973,0,0,0-.952.952A.973.973,0,0,0-223.652-18.7Zm.612,17.748v-13.6a.571.571,0,0,0-.612-.612.571.571,0,0,0-.612.612v13.6a.571.571,0,0,0,.612.612A.571.571,0,0,0-223.04-.952Zm7.65.306a3.882,3.882,0,0,0,4.352-.884.563.563,0,0,0,.17-.408.646.646,0,0,0-.17-.442.646.646,0,0,0-.442-.17.563.563,0,0,0-.408.17,2.776,2.776,0,0,1-3.06.612,2.778,2.778,0,0,1-1.7-2.584v-6.8a2.778,2.778,0,0,1,1.7-2.584,2.9,2.9,0,0,1,3.06.612.563.563,0,0,0,.408.17.646.646,0,0,0,.442-.17.563.563,0,0,0,.17-.408.646.646,0,0,0-.17-.442,3.882,3.882,0,0,0-4.352-.884,3.985,3.985,0,0,0-2.482,3.706v6.8A3.985,3.985,0,0,0-215.39-.646Zm9.69.306a.571.571,0,0,0,.612-.612V-13.8h2.788a2.8,2.8,0,0,1,2.788,2.788V-.952a.571.571,0,0,0,.612.612.571.571,0,0,0,.612-.612V-11.016a4.064,4.064,0,0,0-4.012-4.012h-2.788v-6.324a.571.571,0,0,0-.612-.612.571.571,0,0,0-.612.612v20.4A.571.571,0,0,0-205.7-.34ZM-193.868-13.8h2.108v9.452A4.064,4.064,0,0,0-187.748-.34a.571.571,0,0,0,.612-.612.571.571,0,0,0-.612-.612,2.8,2.8,0,0,1-2.788-2.788V-13.8h2.788a.571.571,0,0,0,.612-.612.571.571,0,0,0-.612-.612h-2.788v-6.324a.571.571,0,0,0-.612-.612.571.571,0,0,0-.612.612v6.324h-2.108a.571.571,0,0,0-.612.612A.571.571,0,0,0-193.868-13.8Zm18.088-4.9a.95.95,0,0,0,.952-.952.95.95,0,0,0-.952-.952.973.973,0,0,0-.952.952A.973.973,0,0,0-175.78-18.7Zm.612,17.748v-13.6a.571.571,0,0,0-.612-.612.571.571,0,0,0-.612.612v13.6a.571.571,0,0,0,.612.612A.571.571,0,0,0-175.168-.952Zm6.188.612a.571.571,0,0,0,.612-.612V-13.8h2.788a2.8,2.8,0,0,1,2.788,2.788V-.952a.571.571,0,0,0,.612.612.571.571,0,0,0,.612-.612V-11.016a4.064,4.064,0,0,0-4.012-4.012h-3.4a.571.571,0,0,0-.612.612V-.952A.571.571,0,0,0-168.98-.34ZM-157.148-13.8h2.108v9.452A4.064,4.064,0,0,0-151.028-.34a.571.571,0,0,0,.612-.612.571.571,0,0,0-.612-.612,2.8,2.8,0,0,1-2.788-2.788V-13.8h2.788a.571.571,0,0,0,.612-.612.571.571,0,0,0-.612-.612h-2.788v-6.324a.571.571,0,0,0-.612-.612.571.571,0,0,0-.612.612v6.324h-2.108a.571.571,0,0,0-.612.612A.571.571,0,0,0-157.148-13.8ZM-144.126-.646a3.86,3.86,0,0,0,4.352-.884.563.563,0,0,0,.17-.408.646.646,0,0,0-.17-.442.646.646,0,0,0-.442-.17.563.563,0,0,0-.408.17,2.722,2.722,0,0,1-3.026.612,2.809,2.809,0,0,1-1.734-2.584V-7.14h6.188a.571.571,0,0,0,.612-.612v-3.4a4.064,4.064,0,0,0-4.012-4.012,4.064,4.064,0,0,0-4.012,4.012v6.8A4.037,4.037,0,0,0-144.126-.646Zm1.53-13.294a2.8,2.8,0,0,1,2.788,2.788v2.788h-5.576v-2.788A2.8,2.8,0,0,1-142.6-13.94ZM-130.084-.476h2.788V2.448A2.778,2.778,0,0,1-129,5.032a2.776,2.776,0,0,1-3.06-.612.646.646,0,0,0-.442-.17.563.563,0,0,0-.408.17.563.563,0,0,0-.17.408.646.646,0,0,0,.17.442,3.882,3.882,0,0,0,4.352.884,3.985,3.985,0,0,0,2.482-3.706V-14.416a.571.571,0,0,0-.612-.612h-3.4a4.064,4.064,0,0,0-4.012,4.012v6.528A4.064,4.064,0,0,0-130.084-.476Zm0-13.328h2.788V-1.7h-2.788a2.8,2.8,0,0,1-2.788-2.788v-6.528A2.8,2.8,0,0,1-130.084-13.8ZM-120.02-.34a.571.571,0,0,0,.612-.612V-13.8h2.788a2.852,2.852,0,0,1,1.394.374.617.617,0,0,0,.85-.238.587.587,0,0,0-.238-.816,3.961,3.961,0,0,0-2.006-.544h-3.4a.571.571,0,0,0-.612.612V-.952A.571.571,0,0,0-120.02-.34Zm14.654-8.16h-2.788a4.064,4.064,0,0,0-4.012,4.012,4.064,4.064,0,0,0,4.012,4.012h3.4a.571.571,0,0,0,.612-.612V-11.22a3.948,3.948,0,0,0-2.448-3.638,3.869,3.869,0,0,0-4.284.85.646.646,0,0,0-.17.442.563.563,0,0,0,.17.408.485.485,0,0,0,.408.2.548.548,0,0,0,.442-.2,2.71,2.71,0,0,1,2.958-.578,2.72,2.72,0,0,1,1.7,2.516Zm-5.576,4.012a2.757,2.757,0,0,1,2.788-2.788h2.788V-1.7h-2.788A2.757,2.757,0,0,1-110.942-4.488Zm11.22-9.316h2.108v9.452A4.064,4.064,0,0,0-93.6-.34a.571.571,0,0,0,.612-.612.571.571,0,0,0-.612-.612A2.8,2.8,0,0,1-96.39-4.352V-13.8H-93.6a.571.571,0,0,0,.612-.612.571.571,0,0,0-.612-.612H-96.39v-6.324A.571.571,0,0,0-97-21.964a.571.571,0,0,0-.612.612v6.324h-2.108a.571.571,0,0,0-.612.612A.571.571,0,0,0-99.722-13.8Zm11.56-4.9a.95.95,0,0,0,.952-.952.95.95,0,0,0-.952-.952.973.973,0,0,0-.952.952A.973.973,0,0,0-88.162-18.7ZM-87.55-.952v-13.6a.571.571,0,0,0-.612-.612.571.571,0,0,0-.612.612v13.6a.571.571,0,0,0,.612.612A.571.571,0,0,0-87.55-.952Zm4.42-13.43,4.08,13.6a.528.528,0,0,0,.578.442.528.528,0,0,0,.578-.442l4.08-13.6a.565.565,0,0,0-.408-.748.565.565,0,0,0-.748.408c-.51,1.666-.986,3.264-1.428,4.76-.816,2.516-1.7,5.44-2.074,6.868-.442-1.462-1.258-4.352-2.074-6.868-.442-1.5-.918-3.094-1.428-4.76a.565.565,0,0,0-.748-.408A.565.565,0,0,0-83.13-14.382ZM-67.66-.646a3.86,3.86,0,0,0,4.352-.884.563.563,0,0,0,.17-.408.646.646,0,0,0-.17-.442.646.646,0,0,0-.442-.17.563.563,0,0,0-.408.17,2.722,2.722,0,0,1-3.026.612,2.809,2.809,0,0,1-1.734-2.584V-7.14h6.188a.571.571,0,0,0,.612-.612v-3.4a4.064,4.064,0,0,0-4.012-4.012,4.064,4.064,0,0,0-4.012,4.012v6.8A4.037,4.037,0,0,0-67.66-.646Zm1.53-13.294a2.8,2.8,0,0,1,2.788,2.788v2.788h-5.576v-2.788A2.8,2.8,0,0,1-66.13-13.94Zm9.52,13.6A.571.571,0,0,0-56-.952V-13.8h2.788a2.852,2.852,0,0,1,1.394.374.617.617,0,0,0,.85-.238.587.587,0,0,0-.238-.816,3.961,3.961,0,0,0-2.006-.544h-3.4a.571.571,0,0,0-.612.612V-.952A.571.571,0,0,0-56.61-.34Zm26.69-.782-5.44-19.72a.615.615,0,0,0-.612-.476.653.653,0,0,0-.646.476l-5.44,19.72a.645.645,0,0,0,.476.816A.612.612,0,0,0-40.8-.782c.1-.374.238-.782.34-1.224.238-.782.476-1.8.85-3.06h7.276c.374,1.258.578,2.278.816,3.06.1.442.238.85.34,1.224a.645.645,0,0,0,.816.476A.626.626,0,0,0-29.92-1.122Zm-2.788-5.236h-6.528c1.19-4.284,2.72-9.792,3.264-11.866C-35.428-16.15-33.9-10.642-32.708-6.358Zm7.48,6.018a.571.571,0,0,0,.612-.612V-13.8h2.788a2.8,2.8,0,0,1,2.788,2.788V-.952a.571.571,0,0,0,.612.612.571.571,0,0,0,.612-.612V-11.016a4.064,4.064,0,0,0-4.012-4.012h-3.4a.571.571,0,0,0-.612.612V-.952A.571.571,0,0,0-25.228-.34Zm16.32-.136H-6.12V2.448a2.778,2.778,0,0,1-1.7,2.584,2.776,2.776,0,0,1-3.06-.612.646.646,0,0,0-.442-.17.563.563,0,0,0-.408.17.563.563,0,0,0-.17.408.646.646,0,0,0,.17.442,3.882,3.882,0,0,0,4.352.884A3.985,3.985,0,0,0-4.9,2.448V-14.416a.571.571,0,0,0-.612-.612h-3.4a4.064,4.064,0,0,0-4.012,4.012v6.528A4.064,4.064,0,0,0-8.908-.476Zm0-13.328H-6.12V-1.7H-8.908A2.8,2.8,0,0,1-11.7-4.488v-6.528A2.8,2.8,0,0,1-8.908-13.8ZM2.618-.646A3.86,3.86,0,0,0,6.97-1.53a.563.563,0,0,0,.17-.408.646.646,0,0,0-.17-.442.646.646,0,0,0-.442-.17.563.563,0,0,0-.408.17,2.722,2.722,0,0,1-3.026.612A2.809,2.809,0,0,1,1.36-4.352V-7.14H7.548a.571.571,0,0,0,.612-.612v-3.4a4.064,4.064,0,0,0-4.012-4.012A4.064,4.064,0,0,0,.136-11.152v6.8A4.037,4.037,0,0,0,2.618-.646ZM4.148-13.94a2.8,2.8,0,0,1,2.788,2.788v2.788H1.36v-2.788A2.8,2.8,0,0,1,4.148-13.94ZM13.668-.476h3.4A4.064,4.064,0,0,0,21.08-4.488v-6.528a4.064,4.064,0,0,0-4.012-4.012H14.28v-6.324a.571.571,0,0,0-.612-.612.571.571,0,0,0-.612.612V-1.088A.571.571,0,0,0,13.668-.476ZM14.28-13.8h2.788a2.8,2.8,0,0,1,2.788,2.788v6.528A2.8,2.8,0,0,1,17.068-1.7H14.28ZM29.852-.34a4.064,4.064,0,0,0,4.012-4.012v-6.8a4.064,4.064,0,0,0-4.012-4.012,4.064,4.064,0,0,0-4.012,4.012v6.8A4.064,4.064,0,0,0,29.852-.34Zm0-13.6a2.8,2.8,0,0,1,2.788,2.788v6.8a2.8,2.8,0,0,1-2.788,2.788,2.8,2.8,0,0,1-2.788-2.788v-6.8A2.8,2.8,0,0,1,29.852-13.94Zm8.3.136h2.108v9.452A4.064,4.064,0,0,0,44.268-.34a.571.571,0,0,0,.612-.612.571.571,0,0,0-.612-.612A2.8,2.8,0,0,1,41.48-4.352V-13.8h2.788a.571.571,0,0,0,.612-.612.571.571,0,0,0-.612-.612H41.48v-6.324a.571.571,0,0,0-.612-.612.571.571,0,0,0-.612.612v6.324H38.148a.571.571,0,0,0-.612.612A.571.571,0,0,0,38.148-13.8ZM51.17-.646a3.86,3.86,0,0,0,4.352-.884.563.563,0,0,0,.17-.408.646.646,0,0,0-.17-.442.646.646,0,0,0-.442-.17.563.563,0,0,0-.408.17,2.722,2.722,0,0,1-3.026.612,2.809,2.809,0,0,1-1.734-2.584V-7.14H56.1a.571.571,0,0,0,.612-.612v-3.4A4.064,4.064,0,0,0,52.7-15.164a4.064,4.064,0,0,0-4.012,4.012v6.8A4.037,4.037,0,0,0,51.17-.646ZM52.7-13.94a2.8,2.8,0,0,1,2.788,2.788v2.788H49.912v-2.788A2.8,2.8,0,0,1,52.7-13.94ZM71.876-.476h3.4a.571.571,0,0,0,.612-.612V-14.552a.571.571,0,0,0-.612-.612.571.571,0,0,0-.612.612V-1.7H71.876a2.8,2.8,0,0,1-2.788-2.788V-14.552a.571.571,0,0,0-.612-.612.571.571,0,0,0-.612.612V-4.488A4.064,4.064,0,0,0,71.876-.476Zm10.2.136a.571.571,0,0,0,.612-.612V-13.8h2.788a2.8,2.8,0,0,1,2.788,2.788V-.952a.571.571,0,0,0,.612.612.571.571,0,0,0,.612-.612V-11.016a4.064,4.064,0,0,0-4.012-4.012h-3.4a.571.571,0,0,0-.612.612V-.952A.571.571,0,0,0,82.076-.34ZM98.4-.476h3.4a.571.571,0,0,0,.612-.612V-21.352a.571.571,0,0,0-.612-.612.571.571,0,0,0-.612.612v6.324H98.4a4.064,4.064,0,0,0-4.012,4.012v6.528A4.064,4.064,0,0,0,98.4-.476Zm0-13.328h2.788V-1.7H98.4a2.8,2.8,0,0,1-2.788-2.788v-6.528A2.8,2.8,0,0,1,98.4-13.8Zm14.892-6.7,5.44,19.72a.581.581,0,0,0,.646.476.615.615,0,0,0,.612-.476l5.44-19.72a.593.593,0,0,0-.442-.782.627.627,0,0,0-.816.442c-.714,2.618-1.394,5.1-2.04,7.378-1.088,3.91-2.278,8.3-2.754,10.064-.544-1.768-1.7-6.154-2.788-10.064-.646-2.278-1.326-4.76-2.04-7.378a.593.593,0,0,0-.782-.442A.612.612,0,0,0,113.288-20.5ZM130.118-.646a3.86,3.86,0,0,0,4.352-.884.563.563,0,0,0,.17-.408.646.646,0,0,0-.17-.442.646.646,0,0,0-.442-.17.563.563,0,0,0-.408.17,2.722,2.722,0,0,1-3.026.612,2.809,2.809,0,0,1-1.734-2.584V-7.14h6.188a.571.571,0,0,0,.612-.612v-3.4a4.064,4.064,0,0,0-4.012-4.012,4.064,4.064,0,0,0-4.012,4.012v6.8A4.037,4.037,0,0,0,130.118-.646Zm1.53-13.294a2.8,2.8,0,0,1,2.788,2.788v2.788H128.86v-2.788A2.8,2.8,0,0,1,131.648-13.94Zm9.52,13.6a.571.571,0,0,0,.612-.612V-13.8h2.788a2.852,2.852,0,0,1,1.394.374.617.617,0,0,0,.85-.238.587.587,0,0,0-.238-.816,3.961,3.961,0,0,0-2.006-.544h-3.4a.571.571,0,0,0-.612.612V-.952A.571.571,0,0,0,141.168-.34ZM155.822-8.5h-2.788a4.064,4.064,0,0,0-4.012,4.012,4.064,4.064,0,0,0,4.012,4.012h3.4a.571.571,0,0,0,.612-.612V-11.22a3.948,3.948,0,0,0-2.448-3.638,3.869,3.869,0,0,0-4.284.85.646.646,0,0,0-.17.442.563.563,0,0,0,.17.408.485.485,0,0,0,.408.2.548.548,0,0,0,.442-.2,2.71,2.71,0,0,1,2.958-.578,2.72,2.72,0,0,1,1.7,2.516Zm-5.576,4.012a2.757,2.757,0,0,1,2.788-2.788h2.788V-1.7h-2.788A2.757,2.757,0,0,1,150.246-4.488ZM162.962-.34a.571.571,0,0,0,.612-.612V-13.8h2.788a2.8,2.8,0,0,1,2.788,2.788V-.952a.571.571,0,0,0,.612.612.571.571,0,0,0,.612-.612V-11.016a4.064,4.064,0,0,0-4.012-4.012h-3.4a.571.571,0,0,0-.612.612V-.952A.571.571,0,0,0,162.962-.34Zm17.068-1.9a2.386,2.386,0,0,1-2.142.646,2.383,2.383,0,0,1-1.836-1.258.617.617,0,0,0-.85-.238.617.617,0,0,0-.238.85,3.887,3.887,0,0,0,2.72,1.87,3.789,3.789,0,0,0,3.162-.952,3.691,3.691,0,0,0,1.224-3.06,3.855,3.855,0,0,0-1.6-2.89l-3.162-2.21a2.354,2.354,0,0,1-1.054-1.836,2.367,2.367,0,0,1,.782-1.972,2.466,2.466,0,0,1,2.04-.612,2.329,2.329,0,0,1,1.734,1.19.617.617,0,0,0,.85.238.608.608,0,0,0,.2-.85,3.647,3.647,0,0,0-2.618-1.8,3.553,3.553,0,0,0-3.026.918,3.646,3.646,0,0,0-1.19,2.958A3.717,3.717,0,0,0,176.6-8.5l3.162,2.244a2.393,2.393,0,0,1,1.088,1.938A2.435,2.435,0,0,1,180.03-2.244Zm5.95-11.56h2.108v9.452A4.064,4.064,0,0,0,192.1-.34a.571.571,0,0,0,.612-.612.571.571,0,0,0-.612-.612,2.8,2.8,0,0,1-2.788-2.788V-13.8H192.1a.571.571,0,0,0,.612-.612.571.571,0,0,0-.612-.612h-2.788v-6.324a.571.571,0,0,0-.612-.612.571.571,0,0,0-.612.612v6.324H185.98a.571.571,0,0,0-.612.612A.571.571,0,0,0,185.98-13.8Zm16.388,5.3H199.58a4.064,4.064,0,0,0-4.012,4.012A4.064,4.064,0,0,0,199.58-.476h3.4a.571.571,0,0,0,.612-.612V-11.22a3.948,3.948,0,0,0-2.448-3.638,3.869,3.869,0,0,0-4.284.85.646.646,0,0,0-.17.442.563.563,0,0,0,.17.408.485.485,0,0,0,.408.2.548.548,0,0,0,.442-.2,2.71,2.71,0,0,1,2.958-.578,2.72,2.72,0,0,1,1.7,2.516Zm-5.576,4.012a2.757,2.757,0,0,1,2.788-2.788h2.788V-1.7H199.58A2.757,2.757,0,0,1,196.792-4.488ZM210.46-.408a.617.617,0,0,0,.85-.238.617.617,0,0,0-.238-.85,2.045,2.045,0,0,1-1.054-1.8V-21.352a.571.571,0,0,0-.612-.612.609.609,0,0,0-.612.612V-3.3A3.352,3.352,0,0,0,210.46-.408Zm4.352-13.4h2.108v9.452A4.064,4.064,0,0,0,220.932-.34a.571.571,0,0,0,.612-.612.571.571,0,0,0-.612-.612,2.8,2.8,0,0,1-2.788-2.788V-13.8h2.788a.571.571,0,0,0,.612-.612.571.571,0,0,0-.612-.612h-2.788v-6.324a.571.571,0,0,0-.612-.612.571.571,0,0,0-.612.612v6.324h-2.108a.571.571,0,0,0-.612.612A.571.571,0,0,0,214.812-13.8ZM229.5-.476h3.4a.571.571,0,0,0,.612-.612V-14.552a.571.571,0,0,0-.612-.612.571.571,0,0,0-.612.612V-1.7H229.5a2.8,2.8,0,0,1-2.788-2.788V-14.552a.571.571,0,0,0-.612-.612.571.571,0,0,0-.612.612V-4.488A4.064,4.064,0,0,0,229.5-.476Zm10.2.136a.571.571,0,0,0,.612-.612V-13.8H243.1a2.8,2.8,0,0,1,2.788,2.788V-.952a.571.571,0,0,0,.612.612.571.571,0,0,0,.612-.612V-11.016a4.064,4.064,0,0,0-4.012-4.012h-3.4a.571.571,0,0,0-.612.612V-.952A.571.571,0,0,0,239.7-.34Zm16.32-.136h2.788V2.448a2.779,2.779,0,0,1-4.76,1.972.646.646,0,0,0-.442-.17.58.58,0,0,0-.578.578.646.646,0,0,0,.17.442,3.882,3.882,0,0,0,4.352.884,3.985,3.985,0,0,0,2.482-3.706V-14.416a.571.571,0,0,0-.612-.612h-3.4a4.064,4.064,0,0,0-4.012,4.012v6.528A4.064,4.064,0,0,0,256.02-.476Zm0-13.328h2.788V-1.7H256.02a2.8,2.8,0,0,1-2.788-2.788v-6.528A2.8,2.8,0,0,1,256.02-13.8ZM267.546-.646A3.86,3.86,0,0,0,271.9-1.53a.563.563,0,0,0,.17-.408.646.646,0,0,0-.17-.442.646.646,0,0,0-.442-.17.563.563,0,0,0-.408.17,2.722,2.722,0,0,1-3.026.612,2.809,2.809,0,0,1-1.734-2.584V-7.14h6.188a.571.571,0,0,0,.612-.612v-3.4a4.064,4.064,0,0,0-4.012-4.012,4.064,4.064,0,0,0-4.012,4.012v6.8A4.037,4.037,0,0,0,267.546-.646Zm1.53-13.294a2.8,2.8,0,0,1,2.788,2.788v2.788h-5.576v-2.788A2.8,2.8,0,0,1,269.076-13.94ZM278.6-.34a.571.571,0,0,0,.612-.612V-13.8H282a2.8,2.8,0,0,1,2.788,2.788V-.952a.571.571,0,0,0,.612.612.571.571,0,0,0,.612-.612V-11.016A4.064,4.064,0,0,0,282-15.028h-3.4a.571.571,0,0,0-.612.612V-.952A.571.571,0,0,0,278.6-.34Z" transform="translate(769.559 687.727)"/><g class="b" transform="translate(342 68.5)"><g transform="translate(305.935)"><g transform="translate(0)"><path class="c" d="M9.567,223.43,0,73.393v90.528Z" transform="translate(0 8.393)"/><path class="d" d="M0,79.873l30.064-63.15L8.945,130.15,0,170.4Z" transform="translate(0 1.913)"/><path class="e" d="M203.24,219.594l28.325-112.658L212.8,160.085Z" transform="translate(23.242 12.229)"/><path class="f" d="M82.463,180.681H95.509l-21.74,96.3L30.66,172.357l4.594,4.6,6.462,5.962L55.63,185.4Z" transform="translate(3.506 19.711)"/><path class="g" d="M118.025,50.1,37.768,68.19,8.945,126.333,0,166.585Z" transform="translate(0 5.729)"/><path class="h" d="M81.992,181.127,69.57,170.692l-20.137-2.237L34.782,177.4l6.462,5.964,13.914,2.484Z" transform="translate(3.978 19.264)"/><path class="i" d="M65.869,174.633a9.411,9.411,0,1,1-9.411-9.41,9.412,9.412,0,0,1,9.411,9.41" transform="translate(5.38 18.895)"/><path d="M59.647,173.194a3.541,3.541,0,1,1-3.541-3.541,3.541,3.541,0,0,1,3.541,3.541" transform="translate(6.011 19.401)"/><path class="h" d="M57.626,172.852a1.025,1.025,0,1,1-1.023-1.025,1.025,1.025,0,0,1,1.023,1.025" transform="translate(6.355 19.65)"/><path class="j" d="M66.992,164.776l11.43,16.773L66,171.113Z" transform="translate(7.548 18.844)"/><path class="k" d="M68.345,171.528,48.21,169.291,45.485,161.1l23.854,4.1Z" transform="translate(5.202 18.424)"/><path class="l" d="M118.025,50.1V176.773L88.2,164.6,40.5,156.15,0,166.585Z" transform="translate(0 5.729)"/><path class="m" d="M16.7,151.721l21.887-5.639,47.7,8.449L81.332,142.6l-39.757-4.473Z" transform="translate(1.91 15.796)"/><path class="n" d="M34.782,176.483l5.513,6.645,15.189,2.933,26.5-5.853-26.83,4.72-13.913-2.484Z" transform="translate(3.978 20.183)"/><path d="M34.782,177.4l14.664-8.343,20.1,1.9,12.44,10.173L69.559,170.693l-20.136-2.238Z" transform="translate(3.978 19.264)"/><path class="o" d="M24.081,263.219l26.577,30.563,46.068,31.028-22.2-58.218Z" transform="translate(2.754 30.101)"/><path class="p" d="M0,154.631,9.566,214.14l24.6-39.757Z" transform="translate(0 17.683)"/><path class="q" d="M76.293,272.9l-50.44-3.373-17.271-61.5L36.29,257.107Z" transform="translate(0.981 23.79)"/><path class="r" d="M91.551,324.462l18.544,1.668V294.18l-19.382-1.49L69.345,266.246Z" transform="translate(7.93 30.448)"/><path class="s" d="M33.183,172.357,76.294,276.984l-40.006-15.8-27.7-49.074Z" transform="translate(0.982 19.711)"/><path class="t" d="M109.28,240.206H88.655l-12.184-5.527Z" transform="translate(8.745 26.838)"/><path class="u" d="M89.47,240.206l11.494,13.978L69.345,269.856l7.94-35.177Z" transform="translate(7.93 26.838)"/><path class="v" d="M106.85,239.639v17.237l-9.131-3.259Z" transform="translate(11.175 27.405)"/><path class="w" d="M98.9,253.617,87.4,239.639h20.624Z" transform="translate(9.995 27.405)"/><path class="x" d="M107.264,163.773,94.1,223.9l13.168,7.454Z" transform="translate(10.761 18.729)"/><path class="y" d="M69.345,266.246l21.369,26.443,19.38,1.491v-8.945l-18.542-.247Z" transform="translate(7.93 30.448)"/><path class="z" d="M110.095,285.235V271.817l-40.749-5.571Z" transform="translate(7.931 30.448)"/><path class="aa" d="M110.095,285.235,69.346,266.246l22.2,18.742Z" transform="translate(7.931 30.448)"/><path class="aa" d="M110.095,255.442l-9.131-3.259L69.346,267.854l27.581-5.05,13.168,1.579Z" transform="translate(7.931 28.84)"/><path class="ab" d="M110.095,268.108l-40.749-1.347,27.581-5.05,13.168,1.579Z" transform="translate(7.931 29.93)"/><path class="ac" d="M110.095,267.593l-40.749-1.347,40.749,5.571Z" transform="translate(7.931 30.448)"/><path class="ad" d="M40.5,145.266,0,155.7l34.165,19.753Z" transform="translate(0 16.612)"/><path class="p" d="M30.659,175.455l16.522-12.546L37,145.266Z" transform="translate(3.506 16.612)"/><path class="s" d="M46.531,162.909l23.853,4.1,13.667-13.295-47.707-8.448Z" transform="translate(4.157 16.612)"/><path class="ae" d="M90.27,179.827l5.842,42.24-19.64,18.887Z" transform="translate(8.745 20.564)"/><path class="af" d="M88.854,181.662l19.009-17.889L94.7,223.9Z" transform="translate(10.161 18.729)"/><path class="ag" d="M108.973,165.023,79.154,152.847l10.8,30.066Z" transform="translate(9.052 17.479)"/><path class="u" d="M78.32,182.912H91.365L80.557,152.848,66.89,166.14Z" transform="translate(7.65 17.479)"/><path class="ah" d="M49.906,169.3l-2.724-8.2L30.659,173.646l4.6,4.6Z" transform="translate(3.506 18.424)"/><path class="ai" d="M108.03,240.513,96.972,232,87.4,236.953Z" transform="translate(9.996 26.532)"/><path class="aj" d="M94.1,217.732l2.111,15.9,11.056,8.51V225.186Z" transform="translate(10.761 24.899)"/><path class="ak" d="M96.113,217.732l2.111,15.9-9.567,4.952-12.186-1.97Z" transform="translate(8.745 24.899)"/><path class="al" d="M114.94,55.833,34.683,73.92l-7.7-55.285L114.94,0Z" transform="translate(3.085)"/><path class="am" d="M29.146,16.723,8.028,130.15,36.849,72.008Z" transform="translate(0.918 1.913)"/><path class="an" d="M136.015,180.681H122.969l21.741,96.3,43.109-104.627-4.6,4.6-6.462,5.962L162.847,185.4Z" transform="translate(14.063 19.71)"/><path class="y" d="M105.913,50.1l80.26,18.09L215,126.333l8.942,40.252Z" transform="translate(12.112 5.729)"/><path class="h" d="M134.676,181.127,147.1,170.692l20.138-2.237,14.648,8.946-6.462,5.964-13.914,2.484Z" transform="translate(15.401 19.264)"/><path class="ao" d="M147.887,174.633a9.411,9.411,0,1,0,9.411-9.41,9.411,9.411,0,0,0-9.411,9.41" transform="translate(16.912 18.895)"/><path d="M152.9,173.194a3.541,3.541,0,1,0,3.542-3.541,3.541,3.541,0,0,0-3.542,3.541" transform="translate(17.486 19.401)"/><path class="h" d="M154.408,172.852a1.025,1.025,0,1,0,1.025-1.025,1.025,1.025,0,0,0-1.025,1.025" transform="translate(17.658 19.65)"/><path class="ap" d="M146.107,164.776l-11.428,16.773L147.1,171.114Z" transform="translate(15.402 18.844)"/><path class="aq" d="M145.926,171.529l20.137-2.237,2.723-8.2-23.854,4.1Z" transform="translate(16.575 18.423)"/><path class="aa" d="M105.913,50.1V176.773L135.729,164.6l47.7-8.448,40.5,10.436Z" transform="translate(12.112 5.729)"/><path class="ar" d="M202.258,151.721l-21.884-5.639-47.7,8.449,4.967-11.927,39.757-4.473Z" transform="translate(15.172 15.796)"/><path class="n" d="M181.885,176.483l-5.514,6.645-15.188,2.933-26.5-5.853,26.83,4.72,13.913-2.484Z" transform="translate(15.402 20.183)"/><path d="M181.885,177.4l-14.664-8.343-20.1,1.9-12.439,10.173L147.1,170.693l20.138-2.238Z" transform="translate(15.402 19.264)"/><path class="as" d="M195.2,263.219l-26.577,30.563-46.07,31.028,22.206-58.216Z" transform="translate(14.015 30.101)"/><path class="at" d="M215.327,154.631l-9.559,59.509-24.6-39.757Z" transform="translate(20.718 17.683)"/><path class="au" d="M142.479,272.9l50.441-3.373,17.271-61.5-27.708,49.074Z" transform="translate(16.294 23.79)"/><path class="av" d="M124.454,324.462l-18.542,1.668V294.18l19.382-1.49,21.367-26.444Z" transform="translate(12.112 30.448)"/><path class="aw" d="M185.588,172.357,142.479,276.984l40.006-15.8,27.7-49.074Z" transform="translate(16.294 19.711)"/><path class="ax" d="M105.913,240.206h20.625l12.186-5.527Z" transform="translate(12.112 26.838)"/><path class="ay" d="M125.6,240.206,114.1,254.184l31.619,15.672-7.944-35.177Z" transform="translate(13.049 26.838)"/><path class="az" d="M105.913,239.639v17.237l9.125-3.259Z" transform="translate(12.112 27.405)"/><path class="ba" d="M115.043,253.617l11.493-13.978H105.913Z" transform="translate(12.112 27.405)"/><path class="az" d="M105.913,163.773,119.081,223.9l-13.168,7.454Z" transform="translate(12.112 18.729)"/><path class="bb" d="M146.66,266.246l-21.368,26.443-19.38,1.491v-8.945l18.541-.249Z" transform="translate(12.112 30.448)"/><path class="bc" d="M105.913,285.235V271.817l40.747-5.571Z" transform="translate(12.112 30.448)"/><path class="bd" d="M105.913,285.235l40.747-18.989-22.205,18.742Z" transform="translate(12.112 30.448)"/><path class="bb" d="M105.913,255.442l9.125-3.259,31.619,15.672-27.58-5.05-13.168,1.579Z" transform="translate(12.112 28.84)"/><path class="be" d="M105.913,268.108l40.747-1.347-27.58-5.05-13.168,1.579Z" transform="translate(12.112 29.93)"/><path class="bf" d="M105.913,267.593l40.747-1.347-40.747,5.571Z" transform="translate(12.112 30.448)"/><path class="bg" d="M175.48,145.266l40.5,10.436-34.164,19.753Z" transform="translate(20.068 16.612)"/><path class="bh" d="M182.86,175.455l-16.522-12.546,10.187-17.643Z" transform="translate(19.022 16.612)"/><path class="aw" d="M170.188,162.909l-23.853,4.1-13.666-13.295,47.707-8.448Z" transform="translate(15.172 16.612)"/><path class="bi" d="M123.564,179.827l-5.84,42.24,19.639,18.886Z" transform="translate(13.464 20.564)"/><path class="bj" d="M124.919,181.662,105.91,163.773,119.079,223.9Z" transform="translate(12.112 18.729)"/><path class="bk" d="M105.913,165.023l29.816-12.176L124.92,182.913Z" transform="translate(12.112 17.479)"/><path class="an" d="M136.015,182.912H122.969l10.809-30.064,13.665,13.292Z" transform="translate(14.063 17.479)"/><path class="bl" d="M163.9,169.3l2.716-8.2,16.524,12.546-4.6,4.6Z" transform="translate(18.743 18.424)"/><path class="bm" d="M105.913,240.513,116.97,232l9.566,4.953Z" transform="translate(12.112 26.532)"/><path class="bn" d="M119.081,217.732l-2.112,15.9-11.056,8.51V225.186Z" transform="translate(12.112 24.899)"/><path class="bn" d="M117.946,217.732l-2.112,15.9,9.566,4.952,12.186-1.97Z" transform="translate(13.246 24.899)"/><path class="bo" d="M105.913,55.833l80.26,18.087,7.7-55.285L105.913,0Z" transform="translate(12.112)"/><path class="z" d="M185.635,16.723l21.12,113.427L177.932,72.008Z" transform="translate(20.348 1.913)"/><path class="bp" d="M233.669,117.254,184.844,16.723,205.966,130.15l8.941,40.252Z" transform="translate(21.138 1.913)"/></g><path class="a" d="M28.682,29.416,17.658-10.549a3.135,3.135,0,0,0-3.17-2.411,3.135,3.135,0,0,0-3.17,2.411L.293,29.416a3.271,3.271,0,0,0,2.274,4.065,3.271,3.271,0,0,0,4.066-2.274c.206-.551.344-1.24.551-2,.344-1.309.827-3.1,1.447-5.237H20.345c.551,2.136,1.1,3.928,1.447,5.237.206.76.344,1.447.551,2a3.294,3.294,0,1,0,6.339-1.791Zm-10.2-12.057H10.491c1.31-4.756,2.687-10.057,4-14.541,1.309,4.484,2.687,9.785,4,14.539ZM33.225,6.126h2.411V30.311a3.1,3.1,0,1,0,6.2,0V6.126h3.79a3.1,3.1,0,1,0,0-6.2H41.843V-4.142a3.736,3.736,0,0,1,1.094-2.7,3.736,3.736,0,0,1,2.7-1.094,3.088,3.088,0,0,0,2.2-.9,3.088,3.088,0,0,0,.9-2.2,3.088,3.088,0,0,0-.9-2.2,3.088,3.088,0,0,0-2.2-.9A9.994,9.994,0,0,0,35.64-4.14V-.075H33.225a3.1,3.1,0,1,0,0,6.2ZM58.932,32.654A9.986,9.986,0,0,0,69.82,30.518a3.162,3.162,0,0,0,0-4.41,3.124,3.124,0,0,0-2.274-.965,2.933,2.933,0,0,0-2.136.965,3.825,3.825,0,0,1-4.134.827,3.745,3.745,0,0,1-2.343-3.514v-3.79H69.615a3.088,3.088,0,0,0,3.1-3.1V9.64a9.994,9.994,0,0,0-19.987,0V23.421a9.784,9.784,0,0,0,6.206,9.233Zm3.79-26.8a3.736,3.736,0,0,1,3.79,3.79v3.79h-7.58V9.64a3.736,3.736,0,0,1,3.79-3.79Zm21.568,26.8a9.986,9.986,0,0,0,10.887-2.136,3.162,3.162,0,0,0,0-4.41,3.124,3.124,0,0,0-2.274-.965,2.933,2.933,0,0,0-2.136.965,3.825,3.825,0,0,1-4.134.827,3.745,3.745,0,0,1-2.343-3.514v-3.79h10.68a3.088,3.088,0,0,0,3.1-3.1V9.64a9.993,9.993,0,1,0-19.987,0V23.421A9.784,9.784,0,0,0,84.29,32.654Zm3.791-26.8a3.736,3.736,0,0,1,3.79,3.79v3.79H84.29V9.64a3.736,3.736,0,0,1,3.791-3.79Zm16.262.276h2.411V30.311a3.1,3.1,0,1,0,6.2,0V6.126h3.79a3.1,3.1,0,1,0,0-6.2h-3.79V-4.142a3.736,3.736,0,0,1,1.094-2.7,3.736,3.736,0,0,1,2.7-1.094,3.088,3.088,0,0,0,2.2-.9,3.088,3.088,0,0,0,.9-2.2,3.088,3.088,0,0,0-.9-2.2,3.088,3.088,0,0,0-2.2-.9,9.993,9.993,0,0,0-9.993,9.994V-.075h-2.411a3.1,3.1,0,1,0,0,6.2ZM135.7,13.154h-3.79a9.994,9.994,0,0,0,0,19.987h6.89a3.088,3.088,0,0,0,3.1-3.1V9.5a9.706,9.706,0,0,0-6.13-9.1,9.656,9.656,0,0,0-10.68,2.136,3.087,3.087,0,0,0-.965,2.205,3.087,3.087,0,0,0,.965,2.205,2.865,2.865,0,0,0,2.136.9,2.911,2.911,0,0,0,2.205-.9,3.6,3.6,0,0,1,4-.827A3.669,3.669,0,0,1,135.7,9.5ZM131.9,19.359h3.79v7.58H131.9a3.79,3.79,0,0,1,0-7.58Zm15.848,10.267a4,4,0,1,0,4-4,4,4,0,0,0-4,4Zm23.566,3.514h6.89a3.088,3.088,0,0,0,3.1-3.1V-11.032a3.088,3.088,0,0,0-.9-2.2,3.088,3.088,0,0,0-2.2-.9,3.088,3.088,0,0,0-2.2.9,3.088,3.088,0,0,0-.9,2.2V-.076h-3.79a9.993,9.993,0,0,0-9.993,9.993V23.145a9.993,9.993,0,0,0,9.992,9.991Zm0-27.011h3.79v20.8h-3.79a3.736,3.736,0,0,1-3.79-3.79V9.916a3.736,3.736,0,0,1,3.79-3.79Zm22.946,26.528a9.986,9.986,0,0,0,10.887-2.136,3.162,3.162,0,0,0,0-4.41,3.124,3.124,0,0,0-2.274-.965,2.933,2.933,0,0,0-2.136.965,3.825,3.825,0,0,1-4.134.827,3.745,3.745,0,0,1-2.343-3.514V19.631h10.68a3.088,3.088,0,0,0,3.1-3.1V9.64a9.993,9.993,0,1,0-19.987,0V23.421a9.784,9.784,0,0,0,6.2,9.233ZM198.053,5.85a3.736,3.736,0,0,1,3.79,3.79v3.79h-7.58V9.64a3.736,3.736,0,0,1,3.79-3.79Z" transform="translate(16.802 400.882)"/></g></g></g></svg>