<svg xmlns="http://www.w3.org/2000/svg" xmlns:xlink="http://www.w3.org/1999/xlink" viewBox="1278 1000 358 108"><defs><style>.a{clip-path:url(#b);}.b{fill:#956c6c;}.c{fill:#360a21;}.d{fill:#1a1515;}.e{fill:#f3e6a7;}.f{fill:#cb8591;}.g{fill:#fff;}.h{fill:#9fa67a;}.i{fill:#4c3f05;}.j{fill:#39310a;}.k{fill:#dcadb6;}.l{fill:#261f20;}.m{fill:#4e3f42;}.n{fill:#dd8038;}.o{fill:#e3c226;}.p{fill:#e49960;}.q{fill:#eab287;}.r{fill:#e8ce51;}.s{fill:#915550;}.t{fill:#eeda7d;}.u{fill:#cccab1;}.v{fill:#aca653;}.w{fill:#dddbb9;}.x{fill:#d7aeab;}.y{fill:#9d3830;}.z{fill:#ebd6d5;}.aa{fill:#772a24;}.ab{fill:#4f1c18;}.ac{fill:#aa911d;}.ad{fill:#817d3e;}.ae{fill:#cdc997;}.af{fill:#d59da7;}.ag{fill:#726213;}.ah{fill:#8d7746;}.ai{fill:#bfbda7;}.aj{fill:#bcb875;}.ak{fill:#733b7c;}.al{fill:#492144;}.am{fill:#d4e7e8;}.an{fill:#5b6a69;}.ao{fill:#103637;}.ap{fill:#185053;}.aq{fill:#301e1f;}.ar{fill:#5779a0;}.as{fill:#206b6e;}.at{fill:#8099b8;}.au{fill:#aabbcf;}.av{fill:#a9d1d3;}.aw{fill:#c47570;}.ax{fill:#badadc;}.ay{fill:#d1e0e1;}.az{fill:#dceced;}.ba{fill:#b9a19f;}.bb{fill:#744440;}.bc{fill:#dbcfce;}.bd{fill:#521511;}.be{fill:#3d100c;}.bf{fill:#2b8d92;}.bg{fill:#80babd;}.bh{fill:#9bc9d5;}.bi{fill:#d2eff0;}.bj{fill:#ced9d9;}.bk{fill:#79a5a7;}.bl{fill:#468d8b;}.bm{fill:#a5c3c4;}.bn{fill:#bf7fbc;}.bo{fill:#692620;}.bp,.bq{fill:#eee;}.bq{font-size:30px;font-family:Miso;}</style><clipPath id="b"><rect x="1278" y="1000" width="358" height="108"/></clipPath></defs><g id="a" class="a"><g transform="translate(1278.371 999.967)"><path class="b" d="M109.2,121.046,106.353,76.43v26.92Z" transform="translate(-106.353 -52.11)"/><path class="c" d="M106.353,38.539l8.94-18.779-6.28,33.729-2.66,11.969Z" transform="translate(-106.353 -14.219)"/><path class="d" d="M309.592,143.474l8.423-33.5-5.579,15.8Z" transform="translate(-242.245 -74.538)"/><path class="e" d="M152.417,177.87H156.3l-6.465,28.637L137.012,175.4l1.366,1.367,1.922,1.773,4.137.738Z" transform="translate(-126.852 -118.281)"/><path class="f" d="M141.449,53.137l-23.866,5.38-8.571,17.289-2.66,11.969Z" transform="translate(-106.353 -36.536)"/><path class="g" d="M155.173,175.261l-3.694-3.1-5.988-.665-4.357,2.66,1.922,1.773,4.137.738Z" transform="translate(-129.608 -115.672)"/><path class="h" d="M159,171.059a2.8,2.8,0,1,1-2.8-2.8,2.8,2.8,0,0,1,2.8,2.8" transform="translate(-137.809 -113.511)"/><path d="M161.024,173.744a1.053,1.053,0,1,1-1.053-1.053,1.053,1.053,0,0,1,1.053,1.053" transform="translate(-141.499 -116.473)"/><path class="g" d="M162.537,175.17a.3.3,0,1,1-.3-.3.3.3,0,0,1,.3.3" transform="translate(-143.511 -117.927)"/><path class="i" d="M172.646,167.814l3.4,4.987-3.694-3.1Z" transform="translate(-150.481 -113.212)"/><path class="j" d="M158.635,167.238l-5.987-.665-.811-2.438,7.093,1.219Z" transform="translate(-136.765 -110.753)"/><path class="k" d="M141.449,53.137V90.8l-8.867-3.621L118.4,84.672l-12.043,3.1Z" transform="translate(-106.353 -36.536)"/><path class="l" d="M123.056,145.21l6.508-1.677,14.186,2.512-1.478-3.547-11.822-1.33Z" transform="translate(-117.521 -95.397)"/><path class="m" d="M141.134,179.521l1.64,1.976,4.516.873,7.883-1.74-7.98,1.4-4.137-.739Z" transform="translate(-129.608 -121.04)"/><path d="M141.134,174.153l4.362-2.481,5.977.564,3.7,3.025-3.694-3.1-5.988-.665Z" transform="translate(-129.608 -115.672)"/><path class="n" d="M130.433,266.257l7.9,9.088,13.7,9.227-6.6-17.311Z" transform="translate(-122.453 -179.034)"/><path class="o" d="M106.353,157.669l2.844,17.7,7.315-11.822Z" transform="translate(-106.353 -106.429)"/><path class="p" d="M135.07,230.361l-15-1-5.135-18.287,8.239,14.592Z" transform="translate(-112.092 -142.135)"/><path class="q" d="M182.3,286.6l5.514.5v-9.5l-5.763-.443-6.354-7.863Z" transform="translate(-152.718 -181.058)"/><path class="r" d="M122.252,175.4l12.82,31.112-11.9-4.7-8.238-14.592Z" transform="translate(-112.092 -118.281)"/><path class="s" d="M192.579,239.36h-6.133l-3.623-1.643Z" transform="translate(-157.483 -159.952)"/><path class="t" d="M181.682,239.36l3.418,4.156-9.4,4.661,2.361-10.46Z" transform="translate(-152.718 -159.952)"/><path class="u" d="M206.786,242.676V247.8l-2.715-.97Z" transform="translate(-171.69 -163.268)"/><path class="v" d="M197.174,246.832l-3.417-4.156h6.133Z" transform="translate(-164.794 -163.268)"/><path class="w" d="M204.364,166.811l-3.915,17.88,3.915,2.217Z" transform="translate(-169.268 -112.542)"/><path class="x" d="M175.7,269.284l6.354,7.863,5.763.444v-2.66l-5.514-.074Z" transform="translate(-152.718 -181.058)"/><path class="y" d="M187.815,274.931v-3.99L175.7,269.284Z" transform="translate(-152.719 -181.058)"/><path class="z" d="M187.815,274.931,175.7,269.284l6.6,5.572Z" transform="translate(-152.719 -181.058)"/><path class="z" d="M187.815,256.189l-2.715-.97-9.4,4.661,8.2-1.5,3.915.47Z" transform="translate(-152.719 -171.654)"/><path class="aa" d="M187.815,266.654l-12.117-.4,8.2-1.5,3.915.47Z" transform="translate(-152.719 -178.028)"/><path class="ab" d="M187.815,269.685l-12.117-.4,12.117,1.657Z" transform="translate(-152.719 -181.058)"/><path class="ac" d="M118.4,148.3l-12.044,3.1,10.159,5.874Z" transform="translate(-106.352 -100.167)"/><path class="o" d="M137.011,157.28l4.913-3.731L138.9,148.3Z" transform="translate(-126.852 -100.167)"/><path class="r" d="M145.725,153.549l7.093,1.219,4.064-3.953L142.7,148.3Z" transform="translate(-130.653 -100.167)"/><path class="ad" d="M186.927,182.865l1.737,12.561-5.84,5.616Z" transform="translate(-157.483 -123.276)"/><path class="ae" d="M195.207,172.131l5.652-5.32-3.916,17.88Z" transform="translate(-165.763 -112.542)"/><path class="af" d="M194.373,159.506l-8.867-3.621,3.214,8.941Z" transform="translate(-159.277 -105.236)"/><path class="t" d="M176.641,164.825h3.879l-3.214-8.94-4.064,3.953Z" transform="translate(-151.077 -105.236)"/><path class="ag" d="M142.734,166.573l-.81-2.438-4.913,3.731,1.367,1.367Z" transform="translate(-126.852 -110.753)"/><path class="ah" d="M199.89,237.57l-3.288-2.53-2.845,1.473Z" transform="translate(-164.794 -158.162)"/><path class="ai" d="M200.449,220.77l.628,4.729,3.288,2.53v-5.042Z" transform="translate(-169.268 -148.62)"/><path class="aj" d="M188.664,220.77l.628,4.729-2.845,1.473-3.624-.586Z" transform="translate(-157.483 -148.62)"/><path class="ak" d="M159.487,19.639l-23.866,5.38-2.291-16.44,26.156-5.541Z" transform="translate(-124.391 -3.038)"/><path class="al" d="M120.66,19.76l-6.28,33.729L122.951,36.2Z" transform="translate(-111.72 -14.219)"/><path class="am" d="M233.2,177.87h-3.879l6.465,28.637L248.605,175.4l-1.367,1.367-1.922,1.773-4.137.738Z" transform="translate(-188.573 -118.281)"/><path class="x" d="M212.265,53.137l23.865,5.38L244.7,75.806l2.659,11.969Z" transform="translate(-177.169 -36.536)"/><path class="g" d="M241.028,175.261l3.694-3.1,5.988-.665,4.356,2.66-1.922,1.773-4.137.738Z" transform="translate(-196.401 -115.672)"/><path class="an" d="M254.239,171.059a2.8,2.8,0,1,0,2.8-2.8,2.8,2.8,0,0,0-2.8,2.8" transform="translate(-205.234 -113.511)"/><path d="M259.254,173.744a1.053,1.053,0,1,0,1.053-1.053,1.054,1.054,0,0,0-1.053,1.053" transform="translate(-208.587 -116.473)"/><path class="g" d="M260.76,175.17a.3.3,0,1,0,.3-.3.3.3,0,0,0-.3.3" transform="translate(-209.594 -117.927)"/><path class="ao" d="M244.427,167.814l-3.4,4.987,3.694-3.1Z" transform="translate(-196.401 -113.212)"/><path class="ap" d="M251.58,167.238l5.988-.665.81-2.438-7.093,1.219Z" transform="translate(-203.258 -110.753)"/><path class="z" d="M212.265,53.137V90.8l8.866-3.621,14.186-2.512,12.043,3.1Z" transform="translate(-177.169 -36.536)"/><path class="aq" d="M259.715,145.21l-6.507-1.677-14.186,2.512L240.5,142.5l11.822-1.33Z" transform="translate(-195.059 -95.397)"/><path class="m" d="M255.067,179.521l-1.64,1.976-4.516.873-7.882-1.74,7.979,1.4,4.137-.739Z" transform="translate(-196.401 -121.04)"/><path d="M255.067,174.153l-4.362-2.481-5.978.564-3.7,3.025,3.694-3.1,5.988-.665Z" transform="translate(-196.401 -115.672)"/><path class="ar" d="M250.507,266.257l-7.9,9.088-13.7,9.227,6.6-17.311Z" transform="translate(-188.294 -179.034)"/><path class="as" d="M297.676,157.669l-2.844,17.7-7.315-11.822Z" transform="translate(-227.485 -106.429)"/><path class="at" d="M248.831,230.361l15-1,5.135-18.287-8.238,14.592Z" transform="translate(-201.618 -142.135)"/><path class="au" d="M217.778,286.6l-5.514.5v-9.5l5.764-.443,6.354-7.863Z" transform="translate(-177.168 -181.058)"/><path class="av" d="M261.65,175.4l-12.819,31.112,11.9-4.7,8.238-14.592Z" transform="translate(-201.618 -118.281)"/><path class="aw" d="M212.265,239.36H218.4l3.623-1.643Z" transform="translate(-177.169 -159.952)"/><path class="ax" d="M223.875,239.36l-3.417,4.156,9.4,4.661-2.361-10.46Z" transform="translate(-182.647 -159.952)"/><path class="ay" d="M212.265,242.676V247.8l2.715-.97Z" transform="translate(-177.169 -163.268)"/><path class="az" d="M214.98,246.832l3.417-4.156h-6.132Z" transform="translate(-177.169 -163.268)"/><path class="ay" d="M212.265,166.811l3.915,17.88-3.915,2.217Z" transform="translate(-177.169 -112.542)"/><path class="ba" d="M224.382,269.284l-6.354,7.863-5.763.444v-2.66l5.513-.074Z" transform="translate(-177.169 -181.058)"/><path class="bb" d="M212.265,274.931v-3.99l12.117-1.657Z" transform="translate(-177.169 -181.058)"/><path class="bc" d="M212.265,274.931l12.117-5.647-6.6,5.572Z" transform="translate(-177.169 -181.058)"/><path class="ba" d="M212.265,256.189l2.715-.97,9.4,4.661-8.2-1.5-3.915.47Z" transform="translate(-177.169 -171.654)"/><path class="bd" d="M212.265,266.654l12.117-.4-8.2-1.5-3.915.47Z" transform="translate(-177.169 -178.028)"/><path class="be" d="M212.265,269.685l12.117-.4-12.117,1.657Z" transform="translate(-177.169 -181.058)"/><path class="bf" d="M281.833,148.3l12.043,3.1-10.159,5.874Z" transform="translate(-223.684 -100.167)"/><path class="bg" d="M277.6,157.28l-4.913-3.731,3.029-5.246Z" transform="translate(-217.571 -100.167)"/><path class="av" d="M250.178,153.549l-7.093,1.219-4.064-3.953,14.187-2.512Z" transform="translate(-195.059 -100.167)"/><path class="bh" d="M225.818,182.865l-1.736,12.561,5.84,5.616Z" transform="translate(-185.07 -123.276)"/><path class="bi" d="M217.916,172.131l-5.652-5.32,3.916,17.88Z" transform="translate(-177.168 -112.542)"/><path class="bj" d="M212.265,159.506l8.866-3.621-3.214,8.941Z" transform="translate(-177.169 -105.236)"/><path class="am" d="M233.2,164.825h-3.879l3.214-8.94,4.064,3.953Z" transform="translate(-188.573 -105.236)"/><path class="bk" d="M270.247,166.573l.809-2.438,4.914,3.731-1.367,1.367Z" transform="translate(-215.937 -110.753)"/><path class="bl" d="M212.265,237.57l3.288-2.53,2.844,1.473Z" transform="translate(-177.169 -158.162)"/><path class="bm" d="M216.18,220.77l-.628,4.729-3.287,2.53v-5.042Z" transform="translate(-177.169 -148.62)"/><path class="bm" d="M222.814,220.77l-.628,4.729,2.844,1.473,3.624-.586Z" transform="translate(-183.802 -148.62)"/><path class="bn" d="M212.265,19.639l23.865,5.38,2.29-16.44L212.265,3.038Z" transform="translate(-177.169 -3.038)"/><path class="y" d="M286.574,19.76l6.28,33.729L284.284,36.2Z" transform="translate(-225.323 -14.219)"/><path class="bo" d="M305.715,49.654,291.2,19.76l6.281,33.729,2.659,11.969Z" transform="translate(-229.944 -14.219)"/></g><path class="bp" d="M36.423,41.241,22.4-9.577a3.986,3.986,0,0,0-4.03-3.067,3.986,3.986,0,0,0-4.03,3.067L.325,41.241a4.159,4.159,0,0,0,2.891,5.169,4.159,4.159,0,0,0,5.169-2.891c.263-.7.438-1.577.7-2.541.438-1.665,1.051-3.943,1.84-6.659H25.821c.7,2.716,1.4,4.994,1.84,6.659.263.964.438,1.84.7,2.541a4.188,4.188,0,0,0,8.061-2.278ZM23.456,25.908H13.292c1.665-6.046,3.417-12.792,5.082-18.487C20.039,13.116,21.791,19.863,23.456,25.908Zm18.75-14.282h3.067V42.38a3.943,3.943,0,0,0,7.886,0V11.627h4.819a3.943,3.943,0,1,0,0-7.886H53.158V-1.428a4.751,4.751,0,0,1,4.819-4.819A3.926,3.926,0,0,0,61.92-10.19a3.926,3.926,0,0,0-3.943-3.943,12.714,12.714,0,0,0-12.7,12.7V3.741H42.206a3.943,3.943,0,0,0,0,7.886ZM74.887,45.359a12.7,12.7,0,0,0,13.844-2.716,4.02,4.02,0,0,0,0-5.608,3.973,3.973,0,0,0-2.891-1.227,3.734,3.734,0,0,0-2.716,1.227,4.863,4.863,0,0,1-5.257,1.051,4.762,4.762,0,0,1-2.979-4.469V28.8H88.468a3.926,3.926,0,0,0,3.943-3.943V16.1A12.7,12.7,0,0,0,67,16.1V33.619A12.441,12.441,0,0,0,74.887,45.359Zm4.819-34.083A4.751,4.751,0,0,1,84.525,16.1v4.819H74.887V16.1A4.751,4.751,0,0,1,79.706,11.276ZM107.13,45.359a12.7,12.7,0,0,0,13.844-2.716,4.02,4.02,0,0,0,0-5.608,3.973,3.973,0,0,0-2.891-1.227,3.734,3.734,0,0,0-2.716,1.227,4.863,4.863,0,0,1-5.257,1.051,4.762,4.762,0,0,1-2.979-4.469V28.8h13.581a3.926,3.926,0,0,0,3.943-3.943V16.1a12.7,12.7,0,0,0-25.409,0V33.619A12.441,12.441,0,0,0,107.13,45.359Zm4.819-34.083a4.751,4.751,0,0,1,4.819,4.819v4.819H107.13V16.1A4.751,4.751,0,0,1,111.949,11.276Zm20.678.35h3.067V42.38a3.943,3.943,0,0,0,7.886,0V11.627H148.4a3.943,3.943,0,0,0,0-7.886h-4.819V-1.428A4.751,4.751,0,0,1,148.4-6.247a3.926,3.926,0,0,0,3.943-3.943,3.926,3.926,0,0,0-3.943-3.943,12.714,12.714,0,0,0-12.7,12.7V3.741h-3.067a3.943,3.943,0,0,0,0,7.886Zm39.866,8.937h-4.819a12.7,12.7,0,0,0,0,25.409h8.762a3.926,3.926,0,0,0,3.943-3.943V15.92a12.342,12.342,0,0,0-7.8-11.566A12.277,12.277,0,0,0,159,7.07a3.818,3.818,0,0,0,0,5.608,3.643,3.643,0,0,0,2.716,1.139,3.7,3.7,0,0,0,2.8-1.139,4.582,4.582,0,0,1,5.082-1.051,4.665,4.665,0,0,1,2.891,4.293Zm-4.819,7.886h4.819v9.638h-4.819a4.819,4.819,0,0,1,0-9.638Z" transform="translate(1371.221 1018.445)"/><text class="bq" transform="translate(1371 1100)"><tspan x="0" y="0">Digitaler Zusammenhalt e.V.</tspan></text></g></svg>