<svg xmlns="http://www.w3.org/2000/svg" xmlns:xlink="http://www.w3.org/1999/xlink" viewBox="0 0 20 20"><defs><style>.a{clip-path:url(#b);}.b{fill:#333;}</style><clipPath id="b"><rect width="20" height="20"/></clipPath></defs><g id="a" class="a"><g transform="translate(0 0.324)"><circle class="b" cx="2" cy="2" r="2" transform="translate(8 4.676)"/><circle class="b" cx="1.664" cy="1.664" r="1.664" transform="translate(14.289 5.751)"/><path class="b" d="M19.941,14.179l-1.288-3.12a2.784,2.784,0,0,1-.538.189,12.022,12.022,0,0,1-3.108.274c-.581,0-1.066-.019-1.474-.045v2.334a1.135,1.135,0,0,0,1.135,1.135h2.57A1.133,1.133,0,0,0,18.3,14.2l.23.559a.764.764,0,0,0,1.412-.583Z"/><circle class="b" cx="1.663" cy="1.663" r="1.663" transform="translate(2.384 5.752)"/><path class="b" d="M.058,14.179l1.289-3.12a2.76,2.76,0,0,0,.538.189,12.014,12.014,0,0,0,3.108.274c.58,0,1.066-.019,1.473-.045v2.334a1.135,1.135,0,0,1-1.134,1.135H2.761A1.135,1.135,0,0,1,1.7,14.2l-.23.559a.764.764,0,0,1-1.412-.583Z"/><path class="b" d="M18.071,9.539s-2.008.272-3.087.272c-.725,0-1.866-.094-2.539-.175a1.333,1.333,0,0,0-.9-.313H8.455a1.334,1.334,0,0,0-.9.313,25.242,25.242,0,0,1-2.538.19,30.658,30.658,0,0,1-3.087-.28.716.716,0,0,0-.719.715c0,.4.2.564.807.743a10.559,10.559,0,0,0,2.965.246,18.448,18.448,0,0,0,2.088-.1v2.886a1.319,1.319,0,0,0,1.386,1.286h3.09a1.254,1.254,0,0,0,1.309-1.286V11.151c.643.053,1.2.1,2.126.1A10.812,10.812,0,0,0,17.97,11c.6-.179.814-.347.814-.744A.714.714,0,0,0,18.071,9.539Z"/></g></g></svg>