<svg xmlns="http://www.w3.org/2000/svg" xmlns:xlink="http://www.w3.org/1999/xlink" viewBox="112 0 25 25"><defs><style>.a{clip-path:url(#b);}</style><clipPath id="b"><rect x="112" width="25" height="25"/></clipPath></defs><g id="a" class="a"><path d="M22.444,28H8.556A5.556,5.556,0,0,1,3,22.444V8.556A5.556,5.556,0,0,1,8.556,3H22.444A5.556,5.556,0,0,1,28,8.556V22.444A5.556,5.556,0,0,1,22.444,28ZM15.5,8.556a1.389,1.389,0,1,0,1.389,1.389A1.389,1.389,0,0,0,15.5,8.556Zm1.389,11.111V12.722H14.111a1.389,1.389,0,0,0,0,2.778v4.167a1.389,1.389,0,1,0,0,2.778h2.778a1.389,1.389,0,1,0,0-2.778Z" transform="translate(109 -3)"/></g></svg>