<svg xmlns="http://www.w3.org/2000/svg" xmlns:xlink="http://www.w3.org/1999/xlink" viewBox="42 0 20 20"><defs><style>.a{clip-path:url(#b);}.b{fill:#333;}</style><clipPath id="b"><rect x="42" width="20" height="20"/></clipPath></defs><g id="a" class="a"><g transform="translate(42 -0.32)"><path class="b" d="M13.8,6.67h1.837L20,18.68H18.217l-1.254-3.6H12.251l-1.3,3.6H9.282Zm2.7,7.088-1.85-5.306L12.73,13.758H16.5Z"/><path class="b" d="M12.093,15.042a17.658,17.658,0,0,1-5.116-3.256h0a45.16,45.16,0,0,1-4.651,3.022L1.4,13.413A37.817,37.817,0,0,0,5.814,10.39c-.48-.446-2.791-3.023-3.023-4.418h1.86A9.692,9.692,0,0,0,6.977,9.228,6.113,6.113,0,0,0,9.3,4.809h1.86a9.714,9.714,0,0,1-2.791,5.582h0a13.356,13.356,0,0,0,4.418,3.023ZM0,4.809H13.023V2.949H7.674V1.32H5.582V2.948H0Z"/></g></g></svg>