<svg xmlns="http://www.w3.org/2000/svg" xmlns:xlink="http://www.w3.org/1999/xlink" viewBox="126 0 20 20"><defs><style>.a{clip-path:url(#b);}.b{fill:#333;}</style><clipPath id="b"><rect x="126" width="20" height="20"/></clipPath></defs><g id="a" class="a"><path class="b" d="M43.718,33.446H26.885A1.555,1.555,0,0,0,25.3,34.968V45.241a1.555,1.555,0,0,0,1.583,1.522H43.718A1.555,1.555,0,0,0,45.3,45.241V34.968a1.555,1.555,0,0,0-1.582-1.522ZM35.175,42.28a.654.654,0,0,1-.062.052.389.389,0,0,1-.048-.039l-7.434-7.55h15.18Zm-3.555-1.6-4.968,4.1V35.632Zm.929.943L34.1,43.2a1.384,1.384,0,0,0,2.035-.007L37.95,41.4l4.809,4.065H27.893Zm11.4,3.126L38.892,40.47l5.06-4.993Z" transform="translate(100.698 -30.369)"/></g></svg>